<?xml version="1.0" encoding="UTF-8"?>
<svg xmlns="http://www.w3.org/2000/svg" version="1.1" xmlns:xlink="http://www.w3.org/1999/xlink" viewBox="0 0 450 450">
  <defs>
    <style>
      .cls-1 {
        clip-path: url(#clippath-4);
      }

      .cls-2, .cls-3, .cls-4, .cls-5, .cls-6, .cls-7, .cls-8, .cls-9, .cls-10, .cls-11, .cls-12, .cls-13 {
        stroke-miterlimit: 10;
      }

      .cls-2, .cls-5, .cls-6, .cls-12 {
        stroke-width: 10px;
      }

      .cls-2, .cls-7, .cls-8, .cls-14 {
        fill: none;
      }

      .cls-2, .cls-9, .cls-14, .cls-10, .cls-13 {
        stroke: #3c435c;
      }

      .cls-15 {
        fill: #e87625;
        stroke: #e87625;
      }

      .cls-15, .cls-16, .cls-9, .cls-14 {
        stroke-width: 5px;
      }

      .cls-15, .cls-16, .cls-9, .cls-14, .cls-10, .cls-13 {
        stroke-linecap: round;
      }

      .cls-15, .cls-16, .cls-14 {
        stroke-linejoin: round;
      }

      .cls-16 {
        fill: #e97624;
        stroke: #e97624;
      }

      .cls-3 {
        fill: #d4d8e7;
      }

      .cls-3, .cls-8, .cls-11 {
        stroke: #d4d8e5;
      }

      .cls-4, .cls-5 {
        fill: #fff;
      }

      .cls-4, .cls-7 {
        stroke: #fff;
      }

      .cls-17 {
        fill: #f89c42;
      }

      .cls-5, .cls-6 {
        stroke: #3d445c;
      }

      .cls-18 {
        clip-path: url(#clippath-1);
      }

      .cls-6, .cls-9, .cls-10, .cls-13 {
        fill: #3c435c;
      }

      .cls-7, .cls-13 {
        stroke-width: 6px;
      }

      .cls-19 {
        clip-path: url(#clippath-3);
      }

      .cls-20, .cls-11 {
        fill: #d4d8e5;
      }

      .cls-10 {
        stroke-width: 4px;
      }

      .cls-21 {
        fill: #f89c41;
      }

      .cls-22 {
        clip-path: url(#clippath-2);
      }

      .cls-23 {
        fill: #ff8c24;
      }

      .cls-12 {
        fill: #7f89a5;
        stroke: #7f89a5;
      }

      .cls-24 {
        clip-path: url(#clippath);
      }
    </style>
    <clipPath id="clippath">
      <circle class="cls-11" cx="226.25" cy="227.98" r="209.54"/>
    </clipPath>
    <clipPath id="clippath-1">
      <path class="cls-17" d="M151.51,370.68h39.43c-4.03-16.14-7.68-34.44-10.21-54.64-2.87-22.93-3.76-43.89-3.57-62.3h-21.45c1.83,17.17,2.87,37.1,2.04,59.23-.81,21.63-3.24,41.01-6.24,57.7Z"/>
    </clipPath>
    <clipPath id="clippath-2">
      <path class="cls-21" d="M144.47,370.68c-2.74-9.97-8.12-24.94-19.15-40.6-11.66-16.54-24.78-26.97-33.55-32.89-1.59-.72-3.38-.25-4.23.98-.94,1.35-.29,2.98-.24,3.11,7.61,3.89,22.93,13.05,34.97,31.11,10.11,15.18,13.36,29.83,14.55,38.04,2.55.09,5.11.17,7.66.26Z"/>
    </clipPath>
    <clipPath id="clippath-3">
      <path class="cls-23" d="M32.18,91.12c15.47,13.89,36.41,36.08,53.61,68.04,25.39,47.17,29.57,91.34,30.05,115.32,9.92,2.65,53.76,13.19,99.29-11.15,38.41-20.53,54.83-53.49,59.65-64.26-11.42-9.1-22.84-18.19-34.26-27.29,4.3-7.67,9.04-17.97,12.28-30.67,5.3-20.77,4.22-38.66,2.58-50,4.67-4.03,9.34-8.05,14.01-12.08l-21.05-28.35c-1.19.28-6.56,1.66-9.97,6.92-4.25,6.56-1.84,13.61-1.55,14.43-8.46,5.53-29.12,17.38-57.91,17.93-24.12.46-42.4-7.23-51.37-11.75-4.68-11.09-12.64-25.79-26.29-39.69-4.83-4.92-9.67-9.03-14.25-12.45-7.8,5.4-15.61,10.8-23.41,16.2,5.05,5.63,10.72,11.48,17.04,17.38,10.35,9.66,20.51,17.65,29.9,24.23-3.85,1.05-10.75,3.48-17.53,9.28-7.29,6.24-10.81,13.27-12.37,17.01-4.07-10.32-10.57-23.38-21.13-36.6-5.04-6.3-10.15-11.59-14.95-15.98-4.76,9.3-9.53,18.6-14.29,27.91l1.92,5.6Z"/>
    </clipPath>
    <clipPath id="clippath-4">
      <circle class="cls-2" cx="151.51" cy="144.47" r="134.79"/>
    </clipPath>
  </defs>
  <!-- Generator: Adobe Illustrator 28.7.1, SVG Export Plug-In . SVG Version: 1.2.0 Build 142)  -->
  <g>
    <g id="Layer_1">
      <g>
        <circle class="cls-20" cx="226.25" cy="227.98" r="209.54"/>
        <g class="cls-24">
          <rect class="cls-4" x="5.63" y="333.91" width="441.24" height="203.09"/>
          <rect class="cls-3" x="12.07" y="337.52" width="456.7" height="123.2"/>
          <ellipse class="cls-12" cx="169.55" cy="369.47" rx="52.32" ry="9.28"/>
          <path class="cls-6" d="M315.68,324.63c58.49,59.74,134.99,81.46,131.19,91.24-2.92,7.5-45.3-12.08-67.42,8.07-20.8,18.95-8.7,59.41-14.29,60.49-7.93,1.53-12.42-83.94-63.4-150-48.07-62.29-124.07-89.96-121.65-94.33,1.74-3.13,36.3,19.33,50.12,7.78,15.05-12.57-5.44-56.28-.64-58.29,6.2-2.59,27.77,75.49,86.08,135.05Z"/>
        </g>
        <circle class="cls-8" cx="226.25" cy="227.98" r="209.54"/>
      </g>
    </g>
    <g id="Layer_6">
      <g>
        <path class="cls-17" d="M151.51,370.68h39.43c-4.03-16.14-7.68-34.44-10.21-54.64-2.87-22.93-3.76-43.89-3.57-62.3h-21.45c1.83,17.17,2.87,37.1,2.04,59.23-.81,21.63-3.24,41.01-6.24,57.7Z"/>
        <g class="cls-18">
          <polygon class="cls-16" points="100.04 333.91 144.7 309.4 147.93 331.36 216.47 315.02 226.25 368.64 93.91 370.68 100.04 333.91"/>
        </g>
      </g>
    </g>
    <g id="Layer_7">
      <g>
        <path class="cls-21" d="M144.47,370.68c-2.74-9.97-8.12-24.94-19.15-40.6-11.66-16.54-24.78-26.97-33.55-32.89-1.59-.72-3.38-.25-4.23.98-.94,1.35-.29,2.98-.24,3.11,7.61,3.89,22.93,13.05,34.97,31.11,10.11,15.18,13.36,29.83,14.55,38.04,2.55.09,5.11.17,7.66.26Z"/>
        <g class="cls-22">
          <polygon class="cls-16" points="104.13 370.68 101.57 354.09 146.26 338.77 156.98 370.68 104.13 370.68"/>
        </g>
      </g>
    </g>
    <g id="Layer_5">
      <circle class="cls-5" cx="151.51" cy="144.47" r="134.79"/>
    </g>
    <g id="Layer_4">
      <g>
        <path class="cls-23" d="M32.18,91.12c15.47,13.89,36.41,36.08,53.61,68.04,25.39,47.17,29.57,91.34,30.05,115.32,9.92,2.65,53.76,13.19,99.29-11.15,38.41-20.53,54.83-53.49,59.65-64.26-11.42-9.1-22.84-18.19-34.26-27.29,4.3-7.67,9.04-17.97,12.28-30.67,5.3-20.77,4.22-38.66,2.58-50,4.67-4.03,9.34-8.05,14.01-12.08l-21.05-28.35c-1.19.28-6.56,1.66-9.97,6.92-4.25,6.56-1.84,13.61-1.55,14.43-8.46,5.53-29.12,17.38-57.91,17.93-24.12.46-42.4-7.23-51.37-11.75-4.68-11.09-12.64-25.79-26.29-39.69-4.83-4.92-9.67-9.03-14.25-12.45-7.8,5.4-15.61,10.8-23.41,16.2,5.05,5.63,10.72,11.48,17.04,17.38,10.35,9.66,20.51,17.65,29.9,24.23-3.85,1.05-10.75,3.48-17.53,9.28-7.29,6.24-10.81,13.27-12.37,17.01-4.07-10.32-10.57-23.38-21.13-36.6-5.04-6.3-10.15-11.59-14.95-15.98-4.76,9.3-9.53,18.6-14.29,27.91l1.92,5.6Z"/>
        <g class="cls-19">
          <path class="cls-15" d="M253.51,67.42c2.16,4.53,1.62,9.59-1.3,12.71-2.18,2.33-5.02,2.85-6.17,3,.14,8.77-.34,21.69-3.53,36.83-3.34,15.84-16.99,80.58-67.91,99.06-8.11,2.95-32.39,10.24-66.63-2.62-2.81,24.53-5.62,49.06-8.43,73.6l166.47-26.04,53.11-119.48-65.6-77.05Z"/>
          <path class="cls-16" d="M48.98,76.04c4.27,3.29,10.99,9.34,16.34,18.89,4.53,8.08,6.35,15.57,7.15,20.55-3.91,4.89-7.83,9.79-11.74,14.68-10.55-10.72-21.11-21.45-31.66-32.17l19.91-21.96Z"/>
          <path class="cls-16" d="M130.68,72.98c-5.28,1.63-10.56,3.25-15.84,4.88-4.71-3.18-11.33-8.47-17.35-16.62-7.52-10.18-10.65-20.15-12.05-26.22,7.02-3.41,14.03-6.81,21.05-10.22,8.07,16.06,16.13,32.12,24.2,48.18Z"/>
        </g>
      </g>
    </g>
    <g id="Layer_2">
      <g>
        <g class="cls-1">
          <circle class="cls-7" cx="151.51" cy="144.47" r="127.83"/>
        </g>
        <circle class="cls-2" cx="151.51" cy="144.47" r="134.79"/>
      </g>
    </g>
    <g id="Layer_3">
      <path class="cls-14" d="M144.7,172.66c5.98,11.05,15.84,18.73,25.66,18.23,12.6-.65,21.25-14.56,26.08-22.34,2.43-3.92,4.03-7.44,5.05-9.99"/>
      <line class="cls-13" x1="122.51" y1="120.3" x2="123.53" y2="125.06"/>
      <line class="cls-9" x1="148.6" y1="110.65" x2="150.48" y2="113.32"/>
      <path class="cls-10" d="M111.84,159.11c-.31.69-54.92,7.15-54.92,7.15"/>
      <path class="cls-10" d="M113.54,172.08c-.17.74-52.5,17.64-52.5,17.64"/>
      <path class="cls-10" d="M194.44,104.31c-.31-.55,25.12-38.38,25.12-38.38"/>
      <path class="cls-10" d="M184.51,98.88c-.42-.48,16.53-42.1,16.53-42.1"/>
    </g>
  </g>
</svg>