<?xml version="1.0" encoding="UTF-8"?>
<svg xmlns="http://www.w3.org/2000/svg" version="1.1" xmlns:xlink="http://www.w3.org/1999/xlink" viewBox="0 0 450 450">
  <defs>
    <style>
      .cls-1 {
        stroke-width: 5px;
      }

      .cls-1, .cls-2 {
        fill: none;
        stroke: #3c435c;
        stroke-linecap: round;
        stroke-miterlimit: 10;
      }

      .cls-3 {
        opacity: .21;
      }

      .cls-3, .cls-4, .cls-5 {
        fill: #3c435c;
      }

      .cls-6 {
        fill: #4f66a9;
        mix-blend-mode: multiply;
        opacity: .42;
      }

      .cls-7 {
        fill: #fff;
      }

      .cls-8 {
        fill: #496fff;
      }

      .cls-9 {
        clip-path: url(#clippath-1);
      }

      .cls-10 {
        fill: #e69d24;
      }

      .cls-11 {
        isolation: isolate;
      }

      .cls-12 {
        fill: #e0e4f2;
      }

      .cls-4 {
        opacity: .33;
      }

      .cls-13 {
        fill: #ffc866;
      }

      .cls-5 {
        opacity: .08;
      }

      .cls-2 {
        stroke-width: 7px;
      }

      .cls-14 {
        clip-path: url(#clippath);
      }
    </style>
    <clipPath id="clippath">
      <circle class="cls-12" cx="226.25" cy="227.98" r="209.54"/>
    </clipPath>
    <clipPath id="clippath-1">
      <path class="cls-8" d="M38.21,320.53c32.1,8.3,46.64-1.7,50.69-4.92,32.43-25.76,2.69-101.45-.61-109.69-10.62-26.49-26.08-45.5-36.98-56.99-21.88,1.19-40.65-8.81-45.87-22.87-8.45-22.79,20.42-51.63,42.92-48.42,15.43,2.2,29.11,19.64,29.33,42.14,4.8.66,10.77,1.11,17.61.81,8.1-.35,14.98-1.65,20.26-3-3.39-5.11-54.37-82.87-34.53-98.01,16.78-12.8,91.02,13.95,93.06,58.05,1.2,25.89-23.06,45.44-28.28,49.47,3.7,4.7,17.5,20.95,43.48,26.71,32.73,7.26,58.98-7.87,63.13-10.35-6.93-11.61-9.69-22.61-5.19-26.04,6.28-4.8,29.68,2.91,29.7,15.26,0,6.37-6.21,12.94-15.31,16.35-1.56,9.35-4.87,22.68-12.57,37.52,0,0-4.54,8.81-10.87,17.5-19.62,26.94-54.08,47.32-63.58,52.74,4.83,5.58,12.65,13.27,24,19.4,45.24,24.44,96.06-3.22,100.05-5.47,8.27-4.66,20.44-12.93,32.2-27.21-5.05-10.16-5.11-13.74-3.81-14.82.96-.79,3.06-.57,7.38,2.05-.71-2.41-1.49-5.92-1.53-10.21-.04-3.85-.06-5.9,1.02-6.64,1.6-1.09,5.88.52,17.36,11.74-6.72,14-18.8,33.82-40.03,50.55-55.25,43.55-124.27,28.21-135.01,25.65-2.13,11.95-5.54,25.62-11.07,40.29-11.65,30.88-28,53.72-41.04,68.86-14.14-7.92-33.77-21.05-52.74-41.85-16.18-17.74-26.6-35.27-33.19-48.62Z"/>
    </clipPath>
  </defs>
  <!-- Generator: Adobe Illustrator 28.7.1, SVG Export Plug-In . SVG Version: 1.2.0 Build 142)  -->
  <g class="cls-11">
    <g id="Layer_1">
      <g>
        <circle class="cls-12" cx="226.25" cy="227.98" r="209.54"/>
        <g class="cls-14">
          <path class="cls-7" d="M241.84,6.32c-14.93,8.28-29.87,16.56-44.8,24.84,3.37,21.7,6.74,43.4,10.12,65.1,25.84-12.11,51.67-24.21,77.51-36.32-14.27-17.88-28.55-35.75-42.82-53.63Z"/>
          <path class="cls-7" d="M295.1,73.6c-29.09,11.84-58.18,23.67-87.28,35.51,1.38,40.37,2.77,80.74,4.15,121.11,49.84-16.42,99.68-32.85,149.53-49.27-22.13-35.78-44.26-71.56-66.4-107.34Z"/>
          <path class="cls-7" d="M373.33,200.25c-53.9,15.5-107.79,30.99-161.69,46.49-5.2,71.94-10.41,143.87-15.61,215.81,91.61-19.71,183.22-39.41,274.82-59.12-32.51-67.73-65.02-135.45-97.52-203.18Z"/>
          <path class="cls-4" d="M230.38,355.71c5.96,2.02,13.97,5.57,22.08,12.03,15.97,12.72,22.66,29.01,25.24,36.64,11.57-28.82,25.73-60.14,43.11-92.98,15.68-29.62,31.73-56.23,47.32-79.85-7.53.4-16.93,1.66-27.34,4.92-6.2,1.95-11.65,4.25-16.3,6.56-8.91,17.6-17.97,37.87-26.29,60.71-9.6,26.38-16.3,50.97-21.03,72.74-1.63-8.04-4.93-19.35-12.09-31.17-3.81-6.29-7.88-11.35-11.57-15.31-3.29,1.49-8.3,4.26-13.14,9.3-5.9,6.13-8.69,12.66-9.99,16.41Z"/>
          <path class="cls-3" d="M238.08,178.01c3.62.17,8.62.87,14.14,3.15,10.86,4.51,17.15,12.46,19.79,16.28,1.83-17.8,4.69-37.38,9.1-58.32,3.98-18.89,8.64-36.17,13.51-51.72-4.1,1.42-9.11,3.61-14.35,7.07-3.13,2.06-5.77,4.2-7.98,6.22-2.13,11.16-3.94,23.82-4.91,37.79-1.13,16.13-.93,30.81-.09,43.61-2.18-4.19-5.81-9.93-11.65-15.34-3.11-2.88-6.17-5.03-8.84-6.64-1.58,1.35-3.92,3.68-5.8,7.24-2.29,4.33-2.8,8.39-2.92,10.67Z"/>
          <path class="cls-5" d="M207.01,60.63c2.17.1,5.16.51,8.47,1.88,6.51,2.7,10.28,7.46,11.86,9.74,1.09-10.66,2.8-22.4,5.43-34.94,2.38-11.32,5.16-21.67,8.08-30.99-2.46.85-5.46,2.16-8.6,4.24-1.87,1.24-3.46,2.52-4.78,3.73-1.27,6.69-2.35,14.27-2.93,22.64-.67,9.67-.54,18.46-.04,26.13-1.31-2.51-3.48-5.95-6.98-9.18-1.86-1.72-3.7-3.01-5.3-3.98-.95.81-2.35,2.21-3.47,4.34-1.37,2.6-1.68,5.03-1.75,6.39Z"/>
          <polyline class="cls-13" points="329.06 210.26 322.98 265.8 349.24 208.81"/>
        </g>
      </g>
    </g>
    <g id="Layer_5">
      <g>
        <path class="cls-8" d="M38.21,320.53c32.1,8.3,46.64-1.7,50.69-4.92,32.43-25.76,2.69-101.45-.61-109.69-10.62-26.49-26.08-45.5-36.98-56.99-21.88,1.19-40.65-8.81-45.87-22.87-8.45-22.79,20.42-51.63,42.92-48.42,15.43,2.2,29.11,19.64,29.33,42.14,4.8.66,10.77,1.11,17.61.81,8.1-.35,14.98-1.65,20.26-3-3.39-5.11-54.37-82.87-34.53-98.01,16.78-12.8,91.02,13.95,93.06,58.05,1.2,25.89-23.06,45.44-28.28,49.47,3.7,4.7,17.5,20.95,43.48,26.71,32.73,7.26,58.98-7.87,63.13-10.35-6.93-11.61-9.69-22.61-5.19-26.04,6.28-4.8,29.68,2.91,29.7,15.26,0,6.37-6.21,12.94-15.31,16.35-1.56,9.35-4.87,22.68-12.57,37.52,0,0-4.54,8.81-10.87,17.5-19.62,26.94-54.08,47.32-63.58,52.74,4.83,5.58,12.65,13.27,24,19.4,45.24,24.44,96.06-3.22,100.05-5.47,8.27-4.66,20.44-12.93,32.2-27.21-5.05-10.16-5.11-13.74-3.81-14.82.96-.79,3.06-.57,7.38,2.05-.71-2.41-1.49-5.92-1.53-10.21-.04-3.85-.06-5.9,1.02-6.64,1.6-1.09,5.88.52,17.36,11.74-6.72,14-18.8,33.82-40.03,50.55-55.25,43.55-124.27,28.21-135.01,25.65-2.13,11.95-5.54,25.62-11.07,40.29-11.65,30.88-28,53.72-41.04,68.86-14.14-7.92-33.77-21.05-52.74-41.85-16.18-17.74-26.6-35.27-33.19-48.62Z"/>
        <g class="cls-9">
          <path class="cls-6" d="M77.69,119.78c-1.81.11-12.46.96-20.03,10.13-6.54,7.93-6.44,16.82-6.36,19.03-2.37-.39-22.18-3.99-31.43-21.83-8.39-16.19-4.58-37.33,9.96-51.57,13.62-10.64,27.23-21.28,40.85-31.91,2.33,25.39,4.67,50.78,7,76.17Z"/>
          <path class="cls-6" d="M87.58,385.06c9.14-2.03,30.93-8.18,49.74-27.66,25.65-26.57,27.38-58.91,27.57-66.89,12.64,4.2,59.45,18.07,112.09-3.32,43.32-17.61,66.27-49.22,74.3-61.53-5.29,14.02-16.51,37.17-39.83,55.91-55.58,44.66-128.04,22.59-135.2,20.28.34,11.84-.62,33.24-11.1,57.08-12.33,28.07-31.32,44.66-41.01,52.06-3.65-.13-13.54-.98-23.08-8.14-8.48-6.37-12.13-14.32-13.48-17.79Z"/>
          <path class="cls-6" d="M174.6,256.81c-1.74-1.81-3.93-3.77-6.64-5.62-6.68-4.55-13.31-6.22-17.62-6.89,11.53.38,30.65-.75,50.55-10.98,47.29-24.32,56.4-78.17,57.45-85.02.43-.22,9.56-5.06,10.21-15.32.58-9.06-5.93-14.72-6.64-15.32,9.53-.45,17.28,5.9,18.38,13.02,1.32,8.53-6.84,18.61-18.69,18.37-.98,11.38-4.81,37.6-23.95,63.33-22.62,30.41-52.52,41.17-63.06,44.43Z"/>
          <path class="cls-6" d="M145.81,127.11c-13.11-1.22-20.52-17.6-29.42-37.28-9.37-20.71-22.79-50.39-10.98-62.81,10.56-11.1,39.76-6.81,68.99,13.28,2.47,4.37,15.27,28.06,5.82,53.87-5.2,14.19-19.08,34.37-34.41,32.94Z"/>
        </g>
      </g>
    </g>
    <g id="Layer_2">
      <path class="cls-1" d="M199.62,199.8c-.84,7.31,4.43,13.32,10.21,13.6,4.38.22,8.82-2.85,10.72-7.66"/>
      <line class="cls-2" x1="172.56" y1="159.57" x2="176.23" y2="166.1"/>
    </g>
    <g id="Layer_3">
      <path class="cls-13" d="M327.04,222.61l18.11-117.95c.58-.47,10.89-8.53,23.49-4.09,12.89,4.55,15.71,17.78,15.83,18.38-14.56,37.14-29.12,74.27-43.68,111.41-.31.3-3.5,3.28-7.38,2.46-3.89-.83-6.92-5.15-6.36-10.22Z"/>
      <path class="cls-10" d="M360.72,119.96c11.77,4.77,22.17-.21,23.74-1-2.06-9.35-9.02-16.74-17.96-19.02-11.36-2.9-20.29,3.89-21.36,4.72.8,1.86,4.98,11.01,15.57,15.3Z"/>
    </g>
  </g>
</svg>