<?xml version="1.0" encoding="UTF-8"?>
<svg xmlns="http://www.w3.org/2000/svg" version="1.1" xmlns:xlink="http://www.w3.org/1999/xlink" viewBox="0 0 450 450">
  <defs>
    <style>
      .cls-1 {
        fill: none;
        stroke-width: 5px;
      }

      .cls-1, .cls-2, .cls-3 {
        stroke: #3c435c;
        stroke-linecap: round;
        stroke-miterlimit: 10;
      }

      .cls-4 {
        fill: #ffe85f;
      }

      .cls-5 {
        fill: #fff;
      }

      .cls-6 {
        fill: #496fff;
      }

      .cls-2 {
        stroke-width: 8px;
      }

      .cls-2, .cls-3 {
        fill: #3c435c;
      }

      .cls-7 {
        fill: #5586ff;
      }

      .cls-8 {
        isolation: isolate;
      }

      .cls-9 {
        fill: #e0e4f2;
      }

      .cls-10 {
        fill: #7697ff;
      }

      .cls-3 {
        stroke-width: 9px;
      }

      .cls-11 {
        fill: #e85718;
        mix-blend-mode: hard-light;
        opacity: .5;
      }

      .cls-12 {
        clip-path: url(#clippath);
      }
    </style>
    <clipPath id="clippath">
      <circle class="cls-6" cx="226.25" cy="227.98" r="209.54"/>
    </clipPath>
  </defs>
  <!-- Generator: Adobe Illustrator 28.7.1, SVG Export Plug-In . SVG Version: 1.2.0 Build 142)  -->
  <g class="cls-8">
    <g id="Layer_1">
      <g>
        <circle class="cls-6" cx="226.25" cy="227.98" r="209.54"/>
        <g class="cls-12">
          <path class="cls-10" d="M213.91,168.98c-9.04.97-24.42,1.25-37.28-7.66-32.67-22.63-12.09-78.99-41.87-106.21-10.55-9.65-31.46-19.32-77.62-9.19-16.34,35.74-32.68,71.49-49.02,107.23,5.39,6.98,38.05,47.91,96.51,53.62,61.78,6.03,103.25-32.06,109.28-37.79Z"/>
          <path class="cls-7" d="M288.98,334.94c12.82-5.51,30.96-15.77,39.83-34.72,35.51-75.83-124.49-189.92-94.98-253.28,9.04-19.41,38.05-38.76,127.15-36.77,52.6,70.84,105.19,141.68,157.79,212.53-19.15,20.28-48.28,46.5-88.85,68.84-56.25,30.97-108.71,40.29-140.94,43.4Z"/>
          <circle class="cls-6" cx="73.5" cy="120.8" r="6.77"/>
          <circle class="cls-6" cx="119.12" cy="151.8" r="6.77"/>
          <circle class="cls-6" cx="94.49" cy="137.82" r="6.77"/>
          <path class="cls-5" d="M-.06,161.44c13.24,20.23,52.08,74.3,123.69,107.55,70.13,32.57,130.77,26.16,153.2,22.61-2.92-9.58-.68-19.18,5.67-24.32,10.3-8.34,28.37-2.46,32.36,6.59,3.66,8.31-3.07,22.67-19.8,28.53-6.46,8.5-22.03,26.42-49.44,36.4-28.11,10.24-53.35,6.55-64.32,4.29,8.2,6.79,20.28,14.95,36,19.89,45.35,14.27,82.36-10.36,88.92-14.91-17.59,13.6-42.69,29.5-75.36,40.48-77.5,26.04-146.02,7.04-172.92-2.08-25.26-33.05-50.51-66.1-75.77-99.14C-11.91,245.37-5.98,203.41-.06,161.44Z"/>
          <polygon class="cls-5" points="219.13 334.05 231.37 354.33 276.2 333.14 262.4 310.84 219.13 334.05"/>
          <path class="cls-5" d="M152.35,301.61l27.53,2.69c.38-60.27-11.73-111.08-26.84-112.56-15.1-1.47-27.85,46.91-28.23,107.18l27.53,2.69Z"/>
          <path class="cls-5" d="M96.76,278.86l37.25,3.64c.38-60.27-16.12-111.51-36.55-113.51-20.43-2-37.56,45.96-37.95,106.23l37.25,3.64Z"/>
        </g>
      </g>
      <path class="cls-9" d="M306.21,348.08c-18.95,14.52-55.22,38.28-106.72,48.8-39.73,8.12-73.4,5.27-94.94,1.69-15.87-11.37-48.11-37.75-69.04-83.72-25.53-56.06-18.67-107.07-15.18-125.88-3.79,92.85,51.87,172.85,128.75,194.38,80.53,22.56,149-28.94,157.13-35.27Z"/>
      <path class="cls-9" d="M295.05,302.41c2.27-2.24,7.6-8.1,9.76-17.5,2.17-9.43-.09-17.06-1.16-20.06,1.8.54,8.61,2.81,11.2,9.03,3.87,9.28-5.15,18.97-6.7,20.65-4.71,5.06-10.24,7.07-13.1,7.89Z"/>
      <path class="cls-9" d="M81.28,244.3c-1.1-10.17-1.59-23.14.1-38.03,1.59-14.08,4.7-26.03,7.82-35.38,1.72-1.03,5.07-2.68,9.19-2.3,4.43.41,7.45,2.95,8.72,4.02,16.99,14.34,23.5,61.99,23.5,61.99,1.39,10.21,2.95,24.66,3.39,42.24-6.78-2.79-14.16-6.28-21.89-10.68-12.54-7.15-22.76-14.86-30.83-21.87Z"/>
      <path class="cls-9" d="M179.69,288.1c-5.55-1.28-11.1-2.56-16.65-3.84-5-1.15-10-2.3-14.99-3.46-3.2-9.26-6.59-22.36-7.15-38.3-.77-21.75,4.06-39.19,7.96-49.89,1.96-.69,4.78-1.34,7.87-.66,2.61.57,11.64,3.46,18.89,32.17,3.44,13.62,7.06,35.32,4.07,63.97Z"/>
      <path class="cls-10" d="M143.96,14.26"/>
    </g>
    <g id="Layer_2">
      <path class="cls-4" d="M352.12,79.39c-4.6,9.06-20.16,36.78-53.61,51.07-19.11,8.16-36.21,8.44-44.38,8.13-27.39-1.06-46.92-12.72-55.05-18.25,2.38-3.85,10.5-17.58,6.25-22.4-5.26-5.95-29.59,1.49-30.21,12.5-.44,7.7,10.92,14.01,11.98,14.58,3.12,6.84,8.62,16.23,18.23,24.48,25.53,21.91,58.33,17.08,64.06,16.15-5.17,6.43-12.4,13.01-22.29,16.15-16.19,5.14-30.36-1.87-30.84-.53-.8,2.24,37.59,24.96,87.09,34.13,26.3,4.87,67.9,8.18,119.82-6.19-.85-14.43-3.81-34.66-13.17-56.88-16.57-39.33-43.75-62.51-57.89-72.94Z"/>
      <path class="cls-4" d="M358.61,102.31c-4.94.77-9.89,1.54-14.83,2.32-13.22-18.49-26.44-36.97-39.66-55.46-2.71-8.72,6.69-18.37,19.67-21.02,13.32-2.71,26.26,2.79,26.97,12.14,2.62,20.67,5.23,41.35,7.85,62.02Z"/>
      <path class="cls-4" d="M383.03,131.32c-5.26-3.42-10.51-6.84-15.77-10.26,3.15-28.3,6.3-56.61,9.45-84.91,4.77-10.4,21.62-11.53,35.94-3.13,14.69,8.62,22.15,24.58,14.99,33.89-14.87,21.47-29.74,42.93-44.6,64.4Z"/>
      <path class="cls-11" d="M423.18,209.21c-.22-4.73-.66-9.82-1.44-15.21-1.47-10.21-3.78-19.22-6.29-26.84-17.45,19.29-34,26.83-45.12,30.25,0,0-47.12,14.47-150.18-15.62-.72-.21-3.62-1.09-3.89-.51-.29.61,2.54,2.54,3.53,3.22,36.73,25.04,91.1,32.19,91.1,32.19,9.79,1.29,20.54,2.67,35.27,2.87,32.46.45,59.04-5.18,77.01-10.34Z"/>
      <path class="cls-11" d="M188.25,97.92c-.44.56-4.51,5.99-2.59,12.5,1.66,5.6,7.06,9.66,13.42,9.91-.99.99-2.89,2.64-5.76,3.71-2.59.96-4.86,1.04-6.21.98-8.46-4.44-13.18-11.39-11.83-16.3.97-3.54,5.25-6.56,6.81-7.66,2.36-1.67,4.59-2.6,6.16-3.14Z"/>
      <path class="cls-11" d="M339.61,98.8c3.06-4.42,7.23-9.29,12.85-13.73,1.22-.96,2.43-1.85,3.63-2.66-.61-2.56-5.53-22.72-12.48-36.49-3.96-7.84-7.75-11.98-9.53-13.79-2.08-2.11-3.99-3.65-5.29-4.63-13.88,2.06-24.02,8.52-25.18,16.37-.21,1.42-.17,3.18.5,5.29,11.83,16.54,23.66,33.09,35.49,49.63Z"/>
      <path class="cls-11" d="M385.92,111.32c-1.76-7.76-3.23-16.73-3.9-26.73-1.16-17.3.43-32.28,2.62-43.95,2.05-.38,5.01-.75,8.54-.49,1.09.08,9.11.97,15.18,4.95,10.27,6.74,15.32,18.15,10.11,24.2-10.85,14.01-21.69,28.01-32.54,42.02Z"/>
    </g>
    <g id="Layer_3">
      <line class="cls-3" x1="121" y1="297.74" x2="120.31" y2="304.42"/>
      <line class="cls-2" x1="156.18" y1="299.04" x2="157.3" y2="305.79"/>
      <path class="cls-1" d="M333.19,141.02c6.2,8.62,11.44,12.52,15.68,11.5h0c4.18-1.01,7.64-5.85,10.33-14.69"/>
    </g>
  </g>
</svg>
