<svg xmlns="http://www.w3.org/2000/svg" xmlns:xlink="http://www.w3.org/1999/xlink" width="1200" zoomAndPan="magnify" viewBox="0 0 900 74.999997" height="100" preserveAspectRatio="xMidYMid meet" version="1.0"><path stroke-linecap="butt" transform="matrix(0.75, 0.00000000000000004, -0.00000000000000004, 0.75, 0.000018, 18.654182)" fill="none" stroke-linejoin="miter" d="M 1.999976 1.997549 L 1198.000074 1.997549 " stroke="#496fff" stroke-width="4" stroke-opacity="1" stroke-miterlimit="4"/><path stroke-linecap="round" transform="matrix(0.75, 0.00000000000000004, -0.00000000000000004, 0.75, 0.000018, 18.654182)" fill="none" stroke-linejoin="round" d="M 9.999977 -4.002451 L 1.999976 1.997549 L 9.999977 7.99755 " stroke="#496fff" stroke-width="4" stroke-opacity="1" stroke-miterlimit="4"/><path stroke-linecap="round" transform="matrix(0.75, 0.00000000000000004, -0.00000000000000004, 0.75, 0.000018, 18.654182)" fill="none" stroke-linejoin="round" d="M 1190.000073 -4.002451 L 1198.000074 1.997549 L 1190.000073 7.99755 " stroke="#496fff" stroke-width="4" stroke-opacity="1" stroke-miterlimit="4"/><path fill="#496fff" d="M 451.5 26.097656 L 451.5 35.097656 L 448.5 35.097656 L 448.5 26.097656 M 451.5 38.097656 L 451.5 47.097656 L 448.5 47.097656 L 448.5 38.097656 M 451.5 50.097656 L 451.5 56.097656 L 448.5 56.097656 L 448.5 50.097656 " fill-opacity="1" fill-rule="nonzero"/><path fill="#496fff" d="M 226.578125 26.097656 L 226.578125 35.097656 L 223.578125 35.097656 L 223.578125 26.097656 M 226.578125 38.097656 L 226.578125 47.097656 L 223.578125 47.097656 L 223.578125 38.097656 M 226.578125 50.097656 L 226.578125 56.097656 L 223.578125 56.097656 L 223.578125 50.097656 " fill-opacity="1" fill-rule="nonzero"/><path fill="#496fff" d="M 676.222656 26.097656 L 676.222656 35.097656 L 673.222656 35.097656 L 673.222656 26.097656 M 676.222656 38.097656 L 676.222656 47.097656 L 673.222656 47.097656 L 673.222656 38.097656 M 676.222656 50.097656 L 676.222656 56.097656 L 673.222656 56.097656 L 673.222656 50.097656 " fill-opacity="1" fill-rule="nonzero"/></svg>