<?xml version="1.0" encoding="UTF-8"?>
<svg xmlns="http://www.w3.org/2000/svg" version="1.1" xmlns:xlink="http://www.w3.org/1999/xlink" viewBox="0 0 450 450">
  <defs>
    <style>
      .cls-1 {
        fill: #261cb5;
      }

      .cls-2 {
        fill: #eef3ff;
      }

      .cls-3 {
        clip-path: url(#clippath-4);
      }

      .cls-4 {
        fill: #cedaf4;
      }

      .cls-5 {
        fill: #7b9bff;
      }

      .cls-6 {
        fill: #496fff;
      }

      .cls-7, .cls-8 {
        fill: #1b52dd;
      }

      .cls-7, .cls-9, .cls-10, .cls-11 {
        display: none;
      }

      .cls-12 {
        fill: #5284ff;
      }

      .cls-13 {
        clip-path: url(#clippath-1);
      }

      .cls-9, .cls-14 {
        fill: #ff9a22;
      }

      .cls-15 {
        isolation: isolate;
      }

      .cls-16 {
        clip-path: url(#clippath-3);
      }

      .cls-17 {
        fill: #eef2ff;
      }

      .cls-18, .cls-19 {
        fill: #f99403;
      }

      .cls-20 {
        fill: #ffd01f;
      }

      .cls-21 {
        fill: #ffed80;
      }

      .cls-22 {
        clip-path: url(#clippath-2);
      }

      .cls-23 {
        fill: #ffe340;
      }

      .cls-24 {
        fill: #dee7ff;
      }

      .cls-25 {
        clip-path: url(#clippath);
      }

      .cls-11 {
        fill: #c9c9c9;
      }

      .cls-19 {
        mix-blend-mode: overlay;
      }
    </style>
    <clipPath id="clippath">
      <circle class="cls-24" cx="219.64" cy="207.56" r="182.04"/>
    </clipPath>
    <clipPath id="clippath-1">
      <circle class="cls-17" cx="209.34" cy="214.51" r="182.04"/>
    </clipPath>
    <clipPath id="clippath-2">
      <circle class="cls-17" cx="225" cy="225" r="182.04"/>
    </clipPath>
    <clipPath id="clippath-3">
      <circle class="cls-4" cx="225" cy="225" r="182.04"/>
    </clipPath>
    <clipPath id="clippath-4">
      <circle class="cls-1" cx="214.15" cy="225" r="182.04"/>
    </clipPath>
  </defs>
  <!-- Generator: Adobe Illustrator 28.7.2, SVG Export Plug-In . SVG Version: 1.2.0 Build 154)  -->
  <g class="cls-15">
    <g id="Layer_1" class="cls-10">
      <g>
        <circle class="cls-24" cx="219.64" cy="207.56" r="182.04"/>
        <g class="cls-25">
          <path class="cls-5" d="M154.92,242.09c-4.87,8.36-14.59,13.17-23.74,13.79-12.35.83-24.35-5.91-30.72-17.36-.44,4.33-1.4,13.6-2.72,25.79-2.01,18.51-3.05,26.9-9.7,33.19-2.28,2.16-4.57,3.45-6.04,4.17-1.38-2.77-2.75-5.55-4.13-8.32,2.15-.24,5.55-.92,8.64-3.26,9.29-7.02,9.14-24.01,8.81-40.77-.26-13.03-1.82-19.65,3.06-25.36,3.46-4.05,8.36-5.56,10.21-6.13,10.6-3.26,16.4,2.47,22.34-.26,3.76-1.72,7.78-6.93,8.34-22.64,18.1,12.61,23.43,33.79,15.66,47.15Z"/>
          <path class="cls-11" d="M93.97,344.48c76.54,51.39,180.47,41.56,243.92-21.24,67.06-66.37,71.48-174.63,7.7-247.43,39.09,7.3,108.74,25.47,179.84,75.41,65.97,46.35,104.16,99.68,123.88,132.17-80.96,93.81-161.93,187.61-242.89,281.42l-245.94-38.65-66.52-181.69Z"/>
          <path class="cls-6" d="M148.62,194.97c-8.48-12.39-17.34-18.45-23.7-21.69-12.16-6.19-21.78-5.42-35.32-15.44-4.89-3.62-7.77-5.75-10.59-9.76,0,0-15.88-22.62,5.31-69.05.33-.72.67-1.44.67-1.44.23-.49.47-1,.75-1.57,5.47-11.26,22.65-42.74,50.32-48.39,59.18-12.08,111.39,110.66,151.23,97.96,13.66-4.35,27.85-24.43,30.64-92.94,11.21,4.79,22.41,9.59,33.62,14.38-12.11,57.55-31.28,78.62-50.04,84.26-53.26,16.01-109.85-90.19-166.13-75.23-35.49,9.43-63.69,67.15-46.1,93.4,14.25,21.27,54.92,16.47,60.98,15.69-.54,9.94-1.09,19.88-1.63,29.82Z"/>
          <path class="cls-5" d="M293.26,324.14c7.17,2.64,25.21,8.19,47.48,3.19,25.1-5.63,39.98-21.17,44.86-26.73,17.34-35.57,21.59-42.39,22.29-42.08,1.67.74-12.22,44.7-34.04,50.38-2.17.56-5.49,1.03-10.98,2.94-11.18,3.88-13.08,7.39-21.51,9.67-2.84.77-9.46,2.47-17.3.8-9.79-2.09-16.2-8.43-19.23-12-3.86,4.61-7.71,9.22-11.57,13.83Z"/>
          <path class="cls-6" d="M122.11,171.26c7.93-3.16,24.24-8.38,44.27-5.21,3.52.56,26.71,4.54,45.31,22.92,31.38,30.99,9.67,77.68,42.71,99.48,4.61,3.04,8.51,4.47,10.94,5.21,32.9,9.96,78.17-22.53,85.42-56.25,1.43-6.65,1.55-13.68,1.56-13.54,1.27,10.83,1.91,29.39-5.73,50-2.56,6.9-21.33,55.05-70.83,65.63-53.15,11.36-91.7-31.28-95.31-35.42-16.59-18.98-22.24-39.59-24.39-50.59,3.67-5.78,5.39-11.12,6.16-15.55,4.02-22.98-12.38-48.59-40.1-66.67Z"/>
          <path class="cls-5" d="M306.2,264.81c1.28-5.07,8.64-5.87,8.81-10.34.13-3.46-3.57-7.44-6.89-7.4-4.45.04-7.92,7.29-8.04,12.79-.24,10.61,11.91,17.08,12.43,17.34-6.23-6.05-6.92-9.93-6.3-12.38Z"/>
          <path class="cls-5" d="M347.94,236.09c.57-2.78.85-5.15,1.01-6.94.29-3.3.55-6.58-.28-10.59-.69-3.37-1.04-5.06-2.4-6.04-4.12-2.97-13.92,2.5-13.58,5.63.2,1.82,3.71,1.72,7.59,4.56,4.88,3.57,6.81,9.21,7.67,13.37Z"/>
          <path class="cls-6" d="M307.42,281.26c-3.76-3.76-8.75-9.87-10.84-18.39-3.27-13.37,3.41-21.21-1.03-25.95-5.76-6.15-26.31-2.88-31.56,9.43-3.81,8.94,2.23,18.48,3.23,20.07,7.27,11.59,22.96,17.11,40.2,14.85Z"/>
          <path class="cls-6" d="M256.92,338.9c1.75-.04,24.18-.12,37.11,18.55,9.61,13.88,10.08,32.52,1.19,47.53,6.81-4.43,13.62-8.85,20.43-13.28-1.78-8.67-6.02-23.47-17.02-38.51-8.6-11.76-18.15-19.31-24.85-23.79-5.62,3.16-11.23,6.33-16.85,9.49Z"/>
        </g>
      </g>
    </g>
    <g id="Layer_2" class="cls-10">
      <g>
        <circle class="cls-17" cx="209.34" cy="214.51" r="182.04"/>
        <g class="cls-13">
          <path class="cls-8" d="M144.62,249.04c-4.87,8.36-14.59,13.17-23.74,13.79-12.35.83-24.35-5.91-30.72-17.36-2.5,10.99-2.84,19.86-2.72,25.79.31,15.15,3.92,25.56-2.34,33.77-2.24,2.94-4.99,4.6-6.77,5.49-3.06-2.81-6.13-5.62-9.19-8.43,1.78-.86,4.49-2.4,7.06-5.04,8.94-9.16,9.14-24.05,8.81-40.77-.26-13.03-1.82-19.65,3.06-25.36,3.46-4.05,8.36-5.56,10.21-6.13,10.6-3.26,16.4,2.47,22.34-.26,3.76-1.72,7.78-6.93,8.34-22.64,18.1,12.61,23.43,33.79,15.66,47.15Z"/>
          <path class="cls-20" d="M6.11,248.87c64.53,52.6,157.6,50.9,218.3-2.3,64.15-56.22,75.47-155.35,23.74-226.72,34.25,9.47,94.93,31.06,154.72,81.96,55.48,47.22,85.79,98.91,101.11,130.14-78.38,80.45-156.77,160.9-235.15,241.35l-216-52.85L6.11,248.87Z"/>
          <path class="cls-6" d="M138.33,201.92c-8.48-12.39-17.34-18.45-23.7-21.69-12.16-6.19-21.78-5.42-35.32-15.44-4.89-3.62-7.77-5.75-10.59-9.76,0,0-15.88-22.62,5.31-69.05.33-.72.67-1.44.67-1.44.23-.49.47-1,.75-1.57,5.47-11.26,22.65-42.74,50.32-48.39,59.18-12.08,111.39,110.66,151.23,97.96,13.66-4.35,27.85-24.43,30.64-92.94,11.21,4.79,22.41,9.59,33.62,14.38-12.11,57.55-31.28,78.62-50.04,84.26-53.26,16.01-109.85-90.19-166.13-75.23-35.49,9.43-63.69,67.15-46.1,93.4,14.25,21.27,54.92,16.47,60.98,15.69-.54,9.94-1.09,19.88-1.63,29.82Z"/>
          <path class="cls-8" d="M282.96,331.09c7.17,2.64,25.21,8.19,47.48,3.19,25.1-5.63,39.98-21.17,44.86-26.73,17.34-35.57,21.59-42.39,22.29-42.08.98.44-15.49,36.85-34.04,50.38-1.84,1.34-7.59,5.3-15.91,8.66-8.83,3.57-20.62,8.33-33.87,4.74-3.85-1.04-11.61-3.81-19.23-12-3.86,4.61-7.71,9.22-11.57,13.83Z"/>
          <path class="cls-6" d="M111.81,178.21c7.93-3.16,24.24-8.38,44.27-5.21,3.52.56,26.71,4.54,45.31,22.92,31.38,30.99,9.67,77.68,42.71,99.48,4.61,3.04,8.51,4.47,10.94,5.21,32.9,9.96,78.17-22.53,85.42-56.25,1.43-6.65,1.55-13.68,1.56-13.54,1.27,10.83,1.91,29.39-5.73,50-2.56,6.9-21.33,55.05-70.83,65.63-53.15,11.36-91.7-31.28-95.31-35.42-16.59-18.98-22.24-39.59-24.39-50.59,3.67-5.78,5.39-11.12,6.16-15.55,4.02-22.98-12.38-48.59-40.1-66.67Z"/>
          <path class="cls-8" d="M295.9,271.76c1.28-5.07,8.64-5.87,8.81-10.34.13-3.46-3.57-7.44-6.89-7.4-4.45.04-7.92,7.29-8.04,12.79-.24,10.61,11.91,17.08,12.43,17.34-6.23-6.05-6.92-9.93-6.3-12.38Z"/>
          <path class="cls-8" d="M337.65,243.04c.57-2.78.85-5.15,1.01-6.94.29-3.3.55-6.58-.28-10.59-.69-3.37-1.04-5.06-2.4-6.04-4.12-2.97-13.92,2.5-13.58,5.63.2,1.82,3.71,1.72,7.59,4.56,4.88,3.57,6.81,9.21,7.67,13.37Z"/>
          <path class="cls-6" d="M297.13,288.21c-3.76-3.76-8.75-9.87-10.84-18.39-3.27-13.37,3.41-21.21-1.03-25.95-5.76-6.15-26.31-2.88-31.56,9.43-3.81,8.94,2.23,18.48,3.23,20.07,7.27,11.59,22.96,17.11,40.2,14.85Z"/>
          <path class="cls-6" d="M246.62,345.85c1.75-.04,24.18-.12,37.11,18.55,9.61,13.88,10.08,32.52,1.19,47.53,6.81-4.43,13.62-8.85,20.43-13.28-1.78-8.67-6.02-23.47-17.02-38.51-8.6-11.76-18.15-19.31-24.85-23.79-5.62,3.16-11.23,6.33-16.85,9.49Z"/>
        </g>
      </g>
    </g>
    <g id="Layer_5">
      <g>
        <circle class="cls-17" cx="225" cy="225" r="182.04"/>
        <g class="cls-22">
          <path class="cls-7" d="M160.28,259.53c-4.87,8.36-14.59,13.17-23.74,13.79-12.35.83-24.35-5.91-30.72-17.36-4.52,12.09-4.06,20.38-2.72,25.79.8,3.23,3.76,12.95,3.76,12.95h0l-7.85-3.42h0s1.24-12.48,1.66-24.51c.59-16.6-.87-20.75,3.06-25.36,3.46-4.05,8.36-5.56,10.21-6.13,10.6-3.26,16.4,2.47,22.34-.26,3.76-1.72,7.78-6.93,8.34-22.64,18.1,12.61,23.43,33.79,15.66,47.15Z"/>
          <path class="cls-9" d="M21.77,259.36c64.53,52.6,157.6,50.9,218.3-2.3,64.15-56.22,75.47-155.35,23.74-226.72,34.25,9.47,94.93,31.06,154.72,81.96,55.48,47.22,85.79,98.91,101.11,130.14-78.38,80.45-156.77,160.9-235.15,241.35l-216-52.85-46.72-171.57Z"/>
          <path class="cls-14" d="M52.84,323.9c62.32,76.53,170,95.43,252.21,46.33,86.88-51.89,122.71-166.25,79.47-262.03,37.31,18.86,102.31,57.96,159.55,131.41,53.11,68.15,76.18,135.91,86.67,176.19-108.85,77.26-217.71,154.53-326.56,231.79l-236.89-110.85-14.45-212.83Z"/>
          <path class="cls-6" d="M153.99,212.41c-8.48-12.39-17.34-18.45-23.7-21.69-12.16-6.19-21.78-5.42-35.32-15.44-4.89-3.62-7.77-5.75-10.59-9.76,0,0-15.88-22.62,5.31-69.05.33-.72.67-1.44.67-1.44.23-.49.47-1,.75-1.57,5.47-11.26,22.65-42.74,50.32-48.39,59.18-12.08,111.39,110.66,151.23,97.96,13.66-4.35,27.85-24.43,30.64-92.94,11.21,4.79,22.41,9.59,33.62,14.38-12.11,57.55-31.28,78.62-50.04,84.26-53.26,16.01-109.85-90.19-166.13-75.23-35.49,9.43-63.69,67.15-46.1,93.4,14.25,21.27,54.92,16.47,60.98,15.69-.54,9.94-1.09,19.88-1.63,29.82Z"/>
          <path class="cls-8" d="M298.62,341.58c7.17,2.64,25.21,8.19,47.48,3.19,25.1-5.63,39.98-21.17,44.86-26.73,17.34-35.57,21.59-42.39,22.29-42.08.98.44-15.49,36.85-34.04,50.38-1.84,1.34-7.59,5.3-15.91,8.66-8.83,3.57-20.62,8.33-33.87,4.74-3.85-1.04-11.61-3.81-19.23-12-3.86,4.61-7.71,9.22-11.57,13.83Z"/>
          <path class="cls-6" d="M127.47,188.7c7.93-3.16,24.24-8.38,44.27-5.21,3.52.56,26.71,4.54,45.31,22.92,31.38,30.99,9.67,77.68,42.71,99.48,4.61,3.04,8.51,4.47,10.94,5.21,32.9,9.96,78.17-22.53,85.42-56.25,1.43-6.65,1.55-13.68,1.56-13.54,1.27,10.83,1.91,29.39-5.73,50-2.56,6.9-21.33,55.05-70.83,65.63-53.15,11.36-91.7-31.28-95.31-35.42-16.59-18.98-22.24-39.59-24.39-50.59,3.67-5.78,5.39-11.12,6.16-15.55,4.02-22.98-12.38-48.59-40.1-66.67Z"/>
          <path class="cls-8" d="M311.56,282.25c1.28-5.07,8.64-5.87,8.81-10.34.13-3.46-3.57-7.44-6.89-7.4-4.45.04-7.92,7.29-8.04,12.79-.24,10.61,11.91,17.08,12.43,17.34-6.23-6.05-6.92-9.93-6.3-12.38Z"/>
          <path class="cls-8" d="M353.31,253.53c.57-2.78.85-5.15,1.01-6.94.29-3.3.55-6.58-.28-10.59-.69-3.37-1.04-5.06-2.4-6.04-4.12-2.97-13.92,2.5-13.58,5.63.2,1.82,3.71,1.72,7.59,4.56,4.88,3.57,6.81,9.21,7.67,13.37Z"/>
          <path class="cls-6" d="M312.79,298.7c-3.76-3.76-8.75-9.87-10.84-18.39-3.27-13.37,3.41-21.21-1.03-25.95-5.76-6.15-26.31-2.88-31.56,9.43-3.81,8.94,2.23,18.48,3.23,20.07,7.27,11.59,22.96,17.11,40.2,14.85Z"/>
          <path class="cls-6" d="M262.28,356.34c1.75-.04,24.18-.12,37.11,18.55,9.61,13.88,10.08,32.52,1.19,47.53,6.81-4.43,13.62-8.85,20.43-13.28-1.78-8.67-6.02-23.47-17.02-38.51-8.6-11.76-18.15-19.31-24.85-23.79-5.62,3.16-11.23,6.33-16.85,9.49Z"/>
        </g>
      </g>
      <path class="cls-5" d="M160.14,259.38c-4.87,8.36-14.59,13.17-23.74,13.79-12.35.83-24.35-5.91-30.72-17.36-.44,4.33-1.4,13.6-2.72,25.79-2.01,18.51-3.05,26.9-9.7,33.19-2.28,2.16-4.57,3.45-6.04,4.17-1.38-2.77-2.75-5.55-4.13-8.32,2.15-.24,5.55-.92,8.64-3.26,9.29-7.02,9.14-24.01,8.81-40.77-.26-13.03-1.82-19.65,3.06-25.36,3.46-4.05,8.36-5.56,10.21-6.13,10.6-3.26,16.4,2.47,22.34-.26,3.76-1.72,7.78-6.93,8.34-22.64,18.1,12.61,23.43,33.79,15.66,47.15Z"/>
    </g>
    <g id="Layer_4" class="cls-10">
      <g>
        <circle class="cls-4" cx="225" cy="225" r="182.04"/>
        <g class="cls-16">
          <path class="cls-12" d="M160.28,259.53c-4.87,8.36-14.59,13.17-23.74,13.79-12.35.83-24.35-5.91-30.72-17.36-2.5,10.99-2.84,19.86-2.72,25.79.31,15.15,3.92,25.56-2.34,33.77-2.24,2.94-4.99,4.6-6.77,5.49-3.06-2.81-6.13-5.62-9.19-8.43,1.78-.86,4.49-2.4,7.06-5.04,8.94-9.16,9.14-24.05,8.81-40.77-.26-13.03-1.82-19.65,3.06-25.36,3.46-4.05,8.36-5.56,10.21-6.13,10.6-3.26,16.4,2.47,22.34-.26,3.76-1.72,7.78-6.93,8.34-22.64,18.1,12.61,23.43,33.79,15.66,47.15Z"/>
          <path class="cls-2" d="M43.87,206.7c2,9.08,13.33,56.35,56.35,79.61,64.04,34.64,133.26-19.1,138.12-22.99,8.01-6.42,59.21-47.47,53.65-113.11-3.94-46.46-34.83-87.55-79.82-106.8,20.03-11.1,54.53-25.89,93.56-18.95,23.9,4.25,49.58,16.66,112.81,87.83,27.53,30.98,63.31,74.38,101.11,130.14-78.38,80.45-156.77,160.9-235.15,241.35l-216-52.85c-10.94-9.62-44.96-42-54.6-96.26-12.06-67.93,23.24-118.67,29.97-127.98Z"/>
          <path class="cls-18" d="M161.2,214.01c-8.48-12.39-17.34-18.45-23.7-21.69-12.16-6.19-21.78-5.42-35.32-15.44-4.89-3.62-7.77-5.75-10.59-9.76,0,0-15.88-22.62,5.31-69.05.33-.72.67-1.44.67-1.44.23-.49.47-1,.75-1.57,5.47-11.26,22.65-42.74,50.32-48.39,59.18-12.08,111.39,110.66,151.23,97.96,13.66-4.35,27.85-24.43,30.64-92.94,11.21,4.79,22.41,9.59,33.62,14.38-12.11,57.55-31.28,78.62-50.04,84.26-53.26,16.01-109.85-90.19-166.13-75.23-35.49,9.43-63.69,67.15-46.1,93.4,14.25,21.27,54.92,16.47,60.98,15.69-.54,9.94-1.09,19.88-1.63,29.82Z"/>
          <path class="cls-19" d="M153.99,212.41c-8.48-12.39-17.34-18.45-23.7-21.69-12.16-6.19-21.78-5.42-35.32-15.44-4.89-3.62-7.77-5.75-10.59-9.76,0,0-15.88-22.62,5.31-69.05.33-.72.67-1.44.67-1.44.23-.49.47-1,.75-1.57,5.47-11.26,22.65-42.74,50.32-48.39,59.18-12.08,111.39,110.66,151.23,97.96,13.66-4.35,27.85-24.43,30.64-92.94,11.21,4.79,22.41,9.59,33.62,14.38-12.11,57.55-31.28,78.62-50.04,84.26-53.26,16.01-109.85-90.19-166.13-75.23-35.49,9.43-63.69,67.15-46.1,93.4,14.25,21.27,54.92,16.47,60.98,15.69-.54,9.94-1.09,19.88-1.63,29.82Z"/>
          <path class="cls-12" d="M298.62,341.58c7.17,2.64,25.21,8.19,47.48,3.19,25.1-5.63,39.98-21.17,44.86-26.73,17.34-35.57,21.59-42.39,22.29-42.08.98.44-15.49,36.85-34.04,50.38-1.84,1.34-7.59,5.3-15.91,8.66-8.83,3.57-20.62,8.33-33.87,4.74-3.85-1.04-11.61-3.81-19.23-12-3.86,4.61-7.71,9.22-11.57,13.83Z"/>
          <path class="cls-18" d="M127.47,188.7c7.93-3.16,24.24-8.38,44.27-5.21,3.52.56,26.71,4.54,45.31,22.92,31.38,30.99,9.67,77.68,42.71,99.48,4.61,3.04,8.51,4.47,10.94,5.21,32.9,9.96,78.17-22.53,85.42-56.25,1.43-6.65,1.55-13.68,1.56-13.54,1.27,10.83,1.91,29.39-5.73,50-2.56,6.9-21.33,55.05-70.83,65.63-53.15,11.36-91.7-31.28-95.31-35.42-16.59-18.98-22.24-39.59-24.39-50.59,3.67-5.78,5.39-11.12,6.16-15.55,4.02-22.98-12.38-48.59-40.1-66.67Z"/>
          <path class="cls-12" d="M311.56,282.25c1.28-5.07,8.64-5.87,8.81-10.34.13-3.46-3.57-7.44-6.89-7.4-4.45.04-7.92,7.29-8.04,12.79-.24,10.61,11.91,17.08,12.43,17.34-6.23-6.05-6.92-9.93-6.3-12.38Z"/>
          <path class="cls-12" d="M353.31,253.53c.57-2.78.85-5.15,1.01-6.94.29-3.3.55-6.58-.28-10.59-.69-3.37-1.04-5.06-2.4-6.04-4.12-2.97-13.92,2.5-13.58,5.63.2,1.82,3.71,1.72,7.59,4.56,4.88,3.57,6.81,9.21,7.67,13.37Z"/>
          <path class="cls-18" d="M312.79,298.7c-3.76-3.76-8.75-9.87-10.84-18.39-3.27-13.37,3.41-21.21-1.03-25.95-5.76-6.15-26.31-2.88-31.56,9.43-3.81,8.94,2.23,18.48,3.23,20.07,7.27,11.59,22.96,17.11,40.2,14.85Z"/>
          <path class="cls-18" d="M262.28,356.34c1.75-.04,24.18-.12,37.11,18.55,9.61,13.88,10.08,32.52,1.19,47.53,6.81-4.43,13.62-8.85,20.43-13.28-1.78-8.67-6.02-23.47-17.02-38.51-8.6-11.76-18.15-19.31-24.85-23.79-5.62,3.16-11.23,6.33-16.85,9.49Z"/>
        </g>
      </g>
      <path class="cls-19" d="M127.79,188.74c7.93-3.16,24.24-8.38,44.27-5.21,3.52.56,26.71,4.54,45.31,22.92,31.38,30.99,9.67,77.68,42.71,99.48,4.61,3.04,8.51,4.47,10.94,5.21,32.9,9.96,78.17-22.53,85.42-56.25,1.43-6.65,1.55-13.68,1.56-13.54,1.27,10.83,1.91,29.39-5.73,50-2.56,6.9-21.33,55.05-70.83,65.63-53.15,11.36-91.7-31.28-95.31-35.42-16.59-18.98-22.24-39.59-24.39-50.59,3.67-5.78,5.39-11.12,6.16-15.55,4.02-22.98-12.38-48.59-40.1-66.67Z"/>
    </g>
    <g id="Layer_3" class="cls-10">
      <g>
        <circle class="cls-1" cx="214.15" cy="225" r="182.04"/>
        <g class="cls-3">
          <path class="cls-21" d="M149.43,259.53c-4.87,8.36-14.59,13.17-23.74,13.79-12.35.83-24.35-5.91-30.72-17.36-2.5,10.99-2.84,19.86-2.72,25.79.31,15.15,3.92,25.56-2.34,33.77-2.24,2.94-4.99,4.6-6.77,5.49-3.06-2.81-6.13-5.62-9.19-8.43,1.78-.86,4.49-2.4,7.06-5.04,8.94-9.16,9.14-24.05,8.81-40.77-.26-13.03-1.82-19.65,3.06-25.36,3.46-4.05,8.36-5.56,10.21-6.13,10.6-3.26,16.4,2.47,22.34-.26,3.76-1.72,7.78-6.93,8.34-22.64,18.1,12.61,23.43,33.79,15.66,47.15Z"/>
          <path class="cls-8" d="M15.17,364.81c9.57-19.58,27.3-48.08,58.98-63.57,63.87-31.25,120.57,21.58,154.72-4.6,50.91-39.02-32.91-188.77,19.15-232.09,23.4-19.47,64.16-9.03,92.74,1.55,20.49,11.29,43.54,26.27,66.91,46.19,52.88,45.06,83.69,95.11,101.11,130.14-78.38,80.45-156.77,160.9-235.15,241.35l-216-52.85c-14.16-22.04-28.31-44.09-42.47-66.13Z"/>
          <path class="cls-23" d="M143.13,212.41c-8.48-12.39-17.34-18.45-23.7-21.69-12.16-6.19-21.78-5.42-35.32-15.44-4.89-3.62-7.77-5.75-10.59-9.76,0,0-15.88-22.62,5.31-69.05.33-.72.67-1.44.67-1.44.23-.49.47-1,.75-1.57,5.47-11.26,22.65-42.74,50.32-48.39,59.18-12.08,111.39,110.66,151.23,97.96,13.66-4.35,27.85-24.43,30.64-92.94,11.21,4.79,22.41,9.59,33.62,14.38-12.11,57.55-31.28,78.62-50.04,84.26-53.26,16.01-109.85-90.19-166.13-75.23-35.49,9.43-63.69,67.15-46.1,93.4,14.25,21.27,54.92,16.47,60.98,15.69-.54,9.94-1.09,19.88-1.63,29.82Z"/>
          <path class="cls-21" d="M287.77,341.58c7.17,2.64,25.21,8.19,47.48,3.19,25.1-5.63,39.98-21.17,44.86-26.73,17.34-35.57,21.59-42.39,22.29-42.08.98.44-15.49,36.85-34.04,50.38-1.84,1.34-7.59,5.3-15.91,8.66-8.83,3.57-20.62,8.33-33.87,4.74-3.85-1.04-11.61-3.81-19.23-12-3.86,4.61-7.71,9.22-11.57,13.83Z"/>
          <path class="cls-23" d="M116.62,188.7c7.93-3.16,24.24-8.38,44.27-5.21,3.52.56,26.71,4.54,45.31,22.92,31.38,30.99,9.67,77.68,42.71,99.48,4.61,3.04,8.51,4.47,10.94,5.21,32.9,9.96,78.17-22.53,85.42-56.25,1.43-6.65,1.55-13.68,1.56-13.54,1.27,10.83,1.91,29.39-5.73,50-2.56,6.9-21.33,55.05-70.83,65.63-53.15,11.36-91.7-31.28-95.31-35.42-16.59-18.98-22.24-39.59-24.39-50.59,3.67-5.78,5.39-11.12,6.16-15.55,4.02-22.98-12.38-48.59-40.1-66.67Z"/>
          <path class="cls-21" d="M300.71,282.25c1.28-5.07,8.64-5.87,8.81-10.34.13-3.46-3.57-7.44-6.89-7.4-4.45.04-7.92,7.29-8.04,12.79-.24,10.61,11.91,17.08,12.43,17.34-6.23-6.05-6.92-9.93-6.3-12.38Z"/>
          <path class="cls-21" d="M342.45,253.53c.57-2.78.85-5.15,1.01-6.94.29-3.3.55-6.58-.28-10.59-.69-3.37-1.04-5.06-2.4-6.04-4.12-2.97-13.92,2.5-13.58,5.63.2,1.82,3.71,1.72,7.59,4.56,4.88,3.57,6.81,9.21,7.67,13.37Z"/>
          <path class="cls-23" d="M301.93,298.7c-3.76-3.76-8.75-9.87-10.84-18.39-3.27-13.37,3.41-21.21-1.03-25.95-5.76-6.15-26.31-2.88-31.56,9.43-3.81,8.94,2.23,18.48,3.23,20.07,7.27,11.59,22.96,17.11,40.2,14.85Z"/>
          <path class="cls-21" d="M251.43,356.34c1.75-.04,24.18-.12,37.11,18.55,9.61,13.88,10.08,32.52,1.19,47.53,6.81-4.43,13.62-8.85,20.43-13.28-1.78-8.67-6.02-23.47-17.02-38.51-8.6-11.76-18.15-19.31-24.85-23.79-5.62,3.16-11.23,6.33-16.85,9.49Z"/>
        </g>
      </g>
    </g>
  </g>
</svg>