<?xml version="1.0" encoding="UTF-8"?>
<svg xmlns="http://www.w3.org/2000/svg" version="1.1" xmlns:xlink="http://www.w3.org/1999/xlink" viewBox="0 0 450 450">
  <defs>
    <style>
      .cls-1 {
        fill: #fdffff;
      }

      .cls-2 {
        fill: #cafeff;
      }

      .cls-3 {
        isolation: isolate;
      }

      .cls-4 {
        fill: #ffd527;
      }

      .cls-5 {
        mix-blend-mode: screen;
        opacity: .54;
      }

      .cls-5, .cls-6 {
        fill: #392a84;
      }

      .cls-7 {
        fill: #62c8ef;
      }

      .cls-8 {
        fill: #484377;
      }

      .cls-6 {
        mix-blend-mode: hard-light;
        opacity: .48;
      }

      .cls-9 {
        fill: #ffe566;
      }

      .cls-10 {
        fill: #e1fbff;
      }

      .cls-11 {
        fill: #f9a819;
      }

      .cls-12 {
        fill: #140c41;
      }

      .cls-13 {
        clip-path: url(#clippath);
      }
    </style>
    <clipPath id="clippath">
      <circle class="cls-10" cx="225" cy="225" r="189.69"/>
    </clipPath>
  </defs>
  <!-- Generator: Adobe Illustrator 28.7.2, SVG Export Plug-In . SVG Version: 1.2.0 Build 154)  -->
  <g class="cls-3">
    <g id="Layer_1">
      <g>
        <circle class="cls-10" cx="225" cy="225" r="189.69"/>
        <g class="cls-13">
          <path class="cls-1" d="M401.75,88.71c-84.17,120.43-168.34,240.86-252.51,361.29,28.77,15.4,57.53,30.8,86.3,46.2,62.3-127.15,124.6-254.3,186.89-381.45-6.89-8.68-13.79-17.36-20.68-26.04Z"/>
          <polygon class="cls-1" points="380.56 57.56 25.15 319.52 109.41 425.99 393.58 75.95 380.56 57.56"/>
          <path class="cls-8" d="M78.61,224.23c32.55-42.82,77.3-54.77,98.46-40.68,14.79,9.85,16.47,31.39,16.57,40.79l-15.27,5.02c.67-3.22,4.87-24.96-6.65-36.78-11.44-11.74-31.2-5.24-39.78-2.68-23.45,7-41.85,28.25-43.71,37.41-.15.76-.65,3.67-2.27,4.09-2.17.56-5.17-3.62-7.34-7.18Z"/>
          <path class="cls-7" d="M223.79,472.96c.31-55.91-4.79-123.12-22.26-197.22-7.84-33.27-17.22-63.84-27.22-91.57,17.4-7.13,34.8-14.26,52.2-21.39,10.19,30.24,19.55,65.21,25.95,104.45,12.88,79.06,9.27,148.21,1.82,200.7-10.16,1.68-20.33,3.36-30.49,5.04Z"/>
          <path class="cls-7" d="M226.34,185.31c-7.25-72.88-1.15-94.29,7.78-96.88,10.27-2.99,27.74,17.91,32.95,38.05,5.99,23.13-3.3,48.72-24.03,66.68-5.57-2.62-11.14-5.23-16.71-7.85Z"/>
          <path class="cls-7" d="M195.05,216.27c-21.47-85.37-36.21-102.91-45.86-102.3-10.38.66-18.05,22.52-19.02,37.65-1.77,27.66,17.4,55.01,49.36,68.4,5.17-1.25,10.34-2.5,15.51-3.75Z"/>
          <path class="cls-2" d="M179.72,203.63c-12.08-18.88-24.17-37.76-36.25-56.63-.79-1.12-1.83-2.28-2.78-2.1-3.14.6-4,15.69-1.73,24.86,5.36,21.68,33.53,31.54,40.76,33.87Z"/>
          <path class="cls-2" d="M233.61,181.09l4.52-71.55c.31-1.95.96-4.29,2.52-4.78,4.75-1.5,17.15,14.25,19.23,28.75,3.55,24.79-23.16,45.26-26.27,47.58Z"/>
          <path class="cls-12" d="M282.82,199.3c7.79-54.09,40.08-85.93,67.56-81.92,16.88,2.46,29.25,18.06,35.38,27.46l-10.84,11.54c-1.06-3.1-8.47-23.88-24.62-28.66-16.97-5.03-32.71,12.62-36.3,16.45-33.06,35.26-13.74,99.38-17.94,100.04-1.48.23-4.83-7.56-13.24-44.89Z"/>
          <path class="cls-12" d="M179.56,212.55c-4.22,3.4-4.98,8.63-5.16,10.75,16.98,29.27,14.32,61.24-3.83,77.67-8.56,7.75-24.75,15.72-39.02,11.37-9.56-2.91-15.21-10.45-42.55-66.59-4.33-8.88-7.89-16.3-10.39-21.52,71.86-21.12,143.72-42.23,215.58-63.35.8,2.55,1.96,6.38,3.26,11.06,12.02,43.52,18.94,68.56,7.64,87.29-11.03,18.29-40.48,32.3-60.17,24.84-29.26-11.09-43.4-73.6-53.01-74.44-6.7-.58-11.43,2.32-11.43,2.32-.41.25-.73.47-.91.61Z"/>
          <path class="cls-7" d="M185.84,211.24c-2.5,1.43-21.89,12.1-43.48,4.11-15.05-5.57-22.35-16.94-24.51-20.64-.23,10.71,3.04,17.79,5.45,21.71,11.04,18,38.42,26.11,68.42,19.73-1.96-8.3-3.92-16.61-5.87-24.91Z"/>
          <path class="cls-7" d="M120.93,197.78c4.6-25.88,2.17-33.56-1.55-35.06-4.05-1.64-10.97,3.54-13.6,9.09-4.15,8.74.82,21.62,14.1,29.01l1.04-3.04Z"/>
          <path class="cls-6" d="M118.58,199.42c2.23,5.33,9.17,19.92,25.42,28.99,26.89,14.99,54.96,1.31,57.51.01,3.75,13.41,7.36,27.12,10.81,41.11,13.45,54.54,22.8,106.79,29.11,156.09l-18.96-3.05c-1.1-24.54-3.48-51.36-7.77-80.01-5.96-39.78-14.46-75.36-23.63-106.2-29.93,5.63-56.84-1.95-67.78-19.93-2.26-3.71-4.62-9.15-5.29-16.75-10.84-6.62-15.79-17.76-12.91-26.32,1.69-5.02,5.69-8.03,8.13-9.51-1.18,2.06-5.03,9.33-3.49,18.96,1.48,9.34,7.08,14.97,8.85,16.62Z"/>
        </g>
      </g>
      <path class="cls-5" d="M170.57,300.97l-62.58-85.37-23.11,6.79,54.51,91.17c3.26-.05,7.32-.46,11.8-1.71,9.38-2.63,15.85-7.64,19.38-10.88Z"/>
      <path class="cls-5" d="M277.73,281.52c-20.78-32.49-41.56-64.99-62.34-97.48-5.4,1.59-10.79,3.17-16.19,4.76,21.5,32.27,42.99,64.55,64.49,96.82,1.88-.25,3.98-.64,6.23-1.25,3.03-.82,5.65-1.84,7.81-2.85Z"/>
      <path class="cls-5" d="M292.45,272.92c-21.5-30.88-43-61.76-64.5-92.64-1.37.43-2.75.85-4.12,1.28,21.29,31.57,42.59,63.14,63.88,94.71.78-.49,1.58-1.03,2.4-1.61.83-.59,1.61-1.17,2.34-1.74Z"/>
      <path class="cls-11" d="M80.87,204.17c-.17,3.49-.99,10.4-5.41,17.54-3.03,4.9-6.63,8.09-9.13,9.95,2.29.78,6.26,2.48,9.92,6.16,5.53,5.57,6.84,12.13,7.2,14.54-.04-2.09.07-10.13,6.05-16.4,2.4-2.52,5-3.97,6.92-4.81-2.5-1.45-6.71-4.36-10.17-9.48-4.89-7.22-5.35-14.52-5.38-17.51Z"/>
      <path class="cls-9" d="M101.5,235.99c.63,2.03,1.51,5.86.84,10.62-.26,1.83-.72,3.42-.99,4.24-.81,2.46-1.88,4.38-2.75,5.72,3.83.08,6.51,1.07,8.3,2.01,4.64,2.43,8.18,6.77,7.73,6.01-.29-.49-2.68-4.71-1.47-9.65,1.02-4.15,3.86-5.87,4.41-6.18-1.67-.1-6.2-.65-10.59-4.72-3.08-2.86-4.72-6.19-5.49-8.04Z"/>
      <path class="cls-4" d="M83.34,261.98c.12,1.68.27,6.1-1.79,10.57-1.03,2.25-2.28,3.77-3.19,4.7,1.07.39,2.8,1.23,4.47,3.11,2.47,2.77,3.36,6.17,3.67,7.65-.09-1.11-.27-4.5,1.33-8,1.19-2.6,2.78-4,3.57-4.59-1.16-.71-2.76-1.94-4.29-4.01-2.58-3.52-3.45-7.47-3.77-9.42Z"/>
    </g>
  </g>
</svg>