<?xml version="1.0" encoding="UTF-8"?>
<svg xmlns="http://www.w3.org/2000/svg" version="1.1" xmlns:xlink="http://www.w3.org/1999/xlink" viewBox="0 0 450 450">
  <defs>
    <style>
      .cls-1 {
        fill: #fffbe3;
      }

      .cls-2 {
        fill: #516db3;
      }

      .cls-3 {
        fill: #fff;
      }

      .cls-4, .cls-5 {
        mix-blend-mode: soft-light;
      }

      .cls-4, .cls-6 {
        fill: #474b9e;
      }

      .cls-5 {
        fill: #14080a;
      }

      .cls-7 {
        fill: #ea8f53;
      }

      .cls-8 {
        fill: #fff3c3;
      }

      .cls-9 {
        clip-path: url(#clippath-1);
      }

      .cls-10 {
        isolation: isolate;
      }

      .cls-11 {
        fill: #d84d00;
      }

      .cls-12 {
        clip-path: url(#clippath-3);
      }

      .cls-13 {
        fill: #f37a28;
      }

      .cls-14 {
        fill: #da7129;
      }

      .cls-15 {
        display: none;
      }

      .cls-16 {
        clip-path: url(#clippath-2);
      }

      .cls-17 {
        fill: #fab687;
      }

      .cls-18 {
        fill: #221f1f;
        stroke: #221f1f;
        stroke-linecap: round;
        stroke-miterlimit: 10;
        stroke-width: 3px;
      }

      .cls-19 {
        fill: #c1692a;
      }

      .cls-20 {
        clip-path: url(#clippath);
      }
    </style>
    <clipPath id="clippath">
      <circle class="cls-8" cx="225.15" cy="224.83" r="189.69"/>
    </clipPath>
    <clipPath id="clippath-1">
      <path class="cls-13" d="M188.82,327.08c-10.79,13.63-20.15,15.13-24.12,15.28-27.59,1.06-56.58-52.44-42.21-75.23,8.6-13.63,33.47-17.48,39.57-10.21,5.23,6.23-5.33,18.2.51,26.04,5.39,7.25,22.45,7.88,30.13.51,14.51-13.92,4.08-64.63-22.98-74.04-25.17-8.75-59.19,20.15-66.84,49.57-11.61,44.63,34.18,103.09,83.97,101.91,32.95-.78,55.41-27.38,60.57-33.82h-58.6Z"/>
    </clipPath>
    <clipPath id="clippath-2">
      <circle class="cls-8" cx="225.01" cy="225.45" r="189.69"/>
    </clipPath>
    <clipPath id="clippath-3">
      <path class="cls-7" d="M188.68,327.7c-10.79,13.63-20.15,15.13-24.12,15.28-27.59,1.06-56.58-52.44-42.21-75.23,8.6-13.63,33.47-17.48,39.57-10.21,5.23,6.23-5.33,18.2.51,26.04,5.39,7.25,22.45,7.88,30.13.51,14.51-13.92,4.08-64.63-22.98-74.04-25.17-8.75-59.19,20.15-66.84,49.57-11.61,44.63,34.18,103.09,83.97,101.91,32.95-.78,55.41-27.38,60.57-33.82h-58.6Z"/>
    </clipPath>
  </defs>
  <!-- Generator: Adobe Illustrator 28.7.2, SVG Export Plug-In . SVG Version: 1.2.0 Build 154)  -->
  <g class="cls-10">
    <g id="Layer_1">
      <g>
        <circle class="cls-8" cx="225.15" cy="224.83" r="189.69"/>
        <g class="cls-20">
          <rect class="cls-1" x="23.13" y="327.59" width="418.98" height="148.26"/>
        </g>
      </g>
      <path class="cls-17" d="M185.5,112.28c-7.58-1.25-16.22-3.16-25.57-6.13-8.22-2.61-15.5-5.57-21.79-8.51-.47,2.81-1.11,9.28,2.38,15.66,4.84,8.83,15.61,13.83,27.3,12.64,5.89-4.55,11.78-9.11,17.67-13.66Z"/>
      <path class="cls-17" d="M243.67,113.82c17.08-6.91,34.16-13.83,51.24-20.74-.4,3.23-2.45,16.63-14.17,26.04-6.65,5.34-13.56,7.12-17.36,7.79-6.57-4.36-13.14-8.73-19.71-13.09Z"/>
      <path class="cls-13" d="M170.33,327.08h154.17c26.87-27.1,31.15-47.99,30.14-62.01-1.88-26.1-22.23-30.51-48.19-76.88-20.36-36.36-21.11-57.34-36.11-60.42-14.36-2.94-29.78,13-40.28,26.39-6.5,1.77-9.98,4.77-11.86,6.88-2.88,3.23-7.35,10.38-2.73,49.37.77,6.5,1.55,11.81,2.08,15.28-20.91,11.72-36.09,23.73-46.22,32.72-10.85,9.63-13.82,13.96-15.59,18.67-7.88,21,10.15,44.49,14.58,50Z"/>
      <path class="cls-13" d="M167.82,111.81c32.15.86,64.31,1.71,96.46,2.57,8.49,8.09,13.9,16.07,17.22,21.82,5.2,9.02,7.59,16.6,8.83,21.69,1.47,6.09,2.21,9.14,1.36,12.09-1.47,5.11-7.41,11.23-28.57,14.91-28.75,5-75.71,13.16-94.45-16.21-13.82-21.68-3.52-50.06-.85-56.87Z"/>
      <path class="cls-17" d="M223.99,155.94c-2.03-8.85,9.19-21.16,19.82-17.37,6.97,2.48,12.72,11.54,11.41,18.53-1.74,9.32-15.5,12.15-24.14,7.18-.98-.56-5.96-3.43-7.09-8.34Z"/>
      <path class="cls-17" d="M165.92,158.95c-2.03-8.85,9.19-21.16,19.82-17.37,6.97,2.48,12.72,11.54,11.41,18.53-1.74,9.32-15.5,12.15-24.14,7.18-.98-.56-5.96-3.43-7.09-8.34Z"/>
      <path class="cls-2" d="M228.74,136.79c-.26-1.2-.37-1.53-.48-1.78-4.77-11.49-39.54-10.45-42.67-1.62-.27.75-.26,1.43-.24,1.77-.66,8.06-3.42,13.36-5.57,16.49-9.94,14.45-32.48,19.78-56.45,13.22,3.78-4.43,4.53-8.95,2.89-10.55-1.66-1.64-6.35-.81-8.1,1.98-1.79,2.86-.47,7.8,4.01,10.05,28.78,10.35,52.17,10.06,66.18,8.58,6.28-.66,36.9-3.83,40.64-16.86.92-3.19,1.72-12.21-.21-21.27Z"/>
      <line class="cls-18" x1="192.25" y1="142.48" x2="192.65" y2="140.88"/>
      <line class="cls-18" x1="204.03" y1="142.47" x2="203.53" y2="140.89"/>
      <path class="cls-11" d="M291.73,157.89c2.08,13.19,3.43,33.81-4.58,55.87-7.67,21.13-19.1,30.51-39.49,58.89-8.62,12-20.86,30.27-33.62,54.42h21.45c7.6-19.99,15.75-35.17,21.7-45.23,18.88-31.9,33.19-41.9,39.83-66.72,4.73-17.7,3-33.35,1.25-42.71-2.18-4.84-4.36-9.68-6.54-14.52Z"/>
      <path class="cls-11" d="M176.34,299.47c18.47-1.05,39-1.29,61.24-.07,26.4,1.44,50.28,4.66,71.18,8.58-22.03,1.28-47.08,1.39-74.54-.78-21.06-1.67-40.43-4.44-57.89-7.73Z"/>
      <path class="cls-11" d="M206.3,257.05c16.25-3.87,39.29-7.48,66.81-5.74,33.88,2.14,60.59,11.51,77.53,19.02-24.11-4.81-51.2-8.88-80.88-11.22-22.65-1.78-43.89-2.33-63.46-2.06Z"/>
      <path class="cls-11" d="M248.51,221.77c4.02-2.85,19.85-13.36,41.37-10.83,28.9,3.4,43.32,27.45,44.93,30.23-6.56-5.83-23.21-19.02-48.28-22.43-16.51-2.25-30.06.65-38.02,3.03Z"/>
      <g>
        <path class="cls-13" d="M188.82,327.08c-10.79,13.63-20.15,15.13-24.12,15.28-27.59,1.06-56.58-52.44-42.21-75.23,8.6-13.63,33.47-17.48,39.57-10.21,5.23,6.23-5.33,18.2.51,26.04,5.39,7.25,22.45,7.88,30.13.51,14.51-13.92,4.08-64.63-22.98-74.04-25.17-8.75-59.19,20.15-66.84,49.57-11.61,44.63,34.18,103.09,83.97,101.91,32.95-.78,55.41-27.38,60.57-33.82h-58.6Z"/>
        <g class="cls-9">
          <path class="cls-3" d="M154.15,257.55c-.47-2.08-3.19-15,5.11-26.55,6.92-9.64,18.89-14.69,31.15-13.28,13.11,19.35,26.21,38.7,39.32,58.04l-62.3,30.38c-4.43-16.2-8.85-32.4-13.28-48.6Z"/>
        </g>
      </g>
      <path class="cls-11" d="M159.96,342.02c5.75,2.38,23.96,9.07,45.74,2.81,15.26-4.38,25.15-13.07,29.79-17.75h-21.45c-3.41,3.65-8.89,8.53-16.77,12.13-16.49,7.54-32.03,4.2-37.32,2.8Z"/>
      <path class="cls-11" d="M104.25,254.51c12.09-19.04,33.87-27.67,52.26-21.93,18.08,5.64,25.56,22.9,26.72,25.7.34-14.87-5.63-28.97-16.68-35.57-16.65-9.95-44.23-2.55-57.9,21.96-1.47,3.28-2.93,6.56-4.4,9.85Z"/>
      <path class="cls-13" d="M184.08,175.3c.54-.81,6.06-8.81,14.98-8.67,3.22.05,5.8,1.15,7.42,2.05-1.26-.2-4.52-.56-8.15,1.06-3.67,1.63-5.6,4.32-6.29,5.39-2.65.06-5.3.12-7.96.18Z"/>
      <path class="cls-17" d="M218.73,121.31c-.49-2.67,3.32-6.63,6.66-5.66,2.19.63,3.87,3.3,3.32,5.46-.73,2.88-5.18,3.99-7.86,2.62-.3-.15-1.85-.94-2.12-2.42Z"/>
      <path class="cls-17" d="M191.72,123.7c-1.98,1.85-7.37.76-8.35-2.58-.64-2.19.7-5.03,2.81-5.73,2.82-.94,6.15,2.23,6.44,5.22.03.34.2,2.07-.9,3.09Z"/>
      <path class="cls-11" d="M204.03,112.77l9.23.25c-1.43.7-3.35,1.85-5.24,3.69-2.78,2.7-4.17,5.6-4.85,7.36-.29-1.9-.47-4.44-.04-7.36.21-1.48.54-2.8.9-3.93Z"/>
      <path class="cls-11" d="M138.15,97.63c10.71,7.28,21.41,14.56,32.12,21.83,1.4-1.14,3.11-2.36,5.16-3.49,3.8-2.1,7.37-3.15,10.08-3.7-7.15-1.36-15.01-3.22-23.39-5.79-8.93-2.73-16.93-5.79-23.96-8.86Z"/>
      <path class="cls-11" d="M243.67,113.82c2.62.05,6.19.39,10.22,1.65,3.15.98,5.72,2.26,7.66,3.4,2.97-3.72,7.29-8.51,13.19-13.28,10.63-8.59,20.31-12.19,20.17-12.51-.15-.34-10.45,3.61-51.24,20.74Z"/>
      <path class="cls-5" d="M217.56,225.69c10.19-12.97,20.14-21.43,27.55-26.84,12.77-9.34,24.89-14.68,26.38-25.53.63-4.6-.86-8.65-2.2-11.32-7.55,5.91-23.2,16.5-45.8,20.51-18.12,3.22-33.15.86-41.98-1.23,3.38,1.89,7.65,3.9,12.77,5.49,7.61,2.37,14.38,2.98,19.38,3.02.21,4.45.53,9.07.98,13.83.74,7.8,1.74,15.17,2.92,22.08Z"/>
      <path class="cls-6" d="M240.68,200.55"/>
      <path class="cls-5" d="M247.42,327.08l5.26-9.59c8.67.34,33.67.2,58.68-16.34,26.97-17.84,36.62-43.3,39.29-51.24,2.67,6.21,3.53,11.34,3.86,14.48,2.86,27.24-18.56,50.46-26.48,59.03-1.52,1.65-2.8,2.94-3.53,3.67h-77.08Z"/>
      <path class="cls-5" d="M188.82,327.08l5.86-10.02c-2.54-.21-17.64-1.68-28.26-14.98-10.03-12.56-8.83-26.6-8.53-29.36-1.07,1.91-2.5,4.9-3.38,8.76-2.41,10.54,1.18,19.42,3.91,26.21,1.92,4.75,5.43,11.91,11.91,19.38h18.49Z"/>
      <path class="cls-5" d="M189.72,129.53c13.16-4.45,25.92-2.68,31.38,4.47,3.31,4.33,4.17,10.95,4.43,12.94.49,3.75,1.09,8.41-1.02,13.11-3.79,8.41-13.54,10.78-15.19,11.16,1.83.11,14.87.72,20.6-7.64,2.82-4.11,2.77-8.8,2.68-17.21-.08-7.67-.12-11.5-2.21-14.64-6.61-9.9-25.03-7.12-27.06-6.81-6.03.91-10.69,3.04-13.6,4.64Z"/>
      <path class="cls-19" d="M123.34,164.87c3.9-4.26,4.57-8.88,2.89-10.55-1.77-1.77-6.87-.91-8.59,2.12-1.68,2.96-.12,7.9,4.5,9.9.4-.49.8-.98,1.2-1.47Z"/>
    </g>
    <g id="Layer_2" class="cls-15">
      <g>
        <circle class="cls-8" cx="225.01" cy="225.45" r="189.69"/>
        <g class="cls-16">
          <rect class="cls-1" x="22.99" y="328.21" width="418.98" height="148.26"/>
        </g>
      </g>
      <path class="cls-17" d="M185.36,112.89c-7.58-1.25-16.22-3.16-25.57-6.13-8.22-2.61-15.5-5.57-21.79-8.51-.47,2.81-1.11,9.28,2.38,15.66,4.84,8.83,15.61,13.83,27.3,12.64,5.89-4.55,11.78-9.11,17.67-13.66Z"/>
      <path class="cls-17" d="M243.53,114.44c17.08-6.91,34.16-13.83,51.24-20.74-.4,3.23-2.45,16.63-14.17,26.04-6.65,5.34-13.56,7.12-17.36,7.79-6.57-4.36-13.14-8.73-19.71-13.09Z"/>
      <path class="cls-7" d="M170.19,327.7h154.17c26.87-27.1,31.15-47.99,30.14-62.01-1.88-26.1-22.23-30.51-48.19-76.88-20.36-36.36-21.11-57.34-36.11-60.42-14.36-2.94-29.78,13-40.28,26.39-6.5,1.77-9.98,4.77-11.86,6.88-2.88,3.23-7.35,10.38-2.73,49.37.77,6.5,1.55,11.81,2.08,15.28-20.91,11.72-36.09,23.73-46.22,32.72-10.85,9.63-13.82,13.96-15.59,18.67-7.88,21,10.15,44.49,14.58,50Z"/>
      <path class="cls-7" d="M167.67,112.42c32.15.86,64.31,1.71,96.46,2.57,8.49,8.09,13.9,16.07,17.22,21.82,5.2,9.02,7.59,16.6,8.83,21.69,1.47,6.09,2.21,9.14,1.36,12.09-1.47,5.11-7.41,11.23-28.57,14.91-28.75,5-75.71,13.16-94.45-16.21-13.82-21.68-3.52-50.06-.85-56.87Z"/>
      <path class="cls-17" d="M223.85,156.55c-2.03-8.85,9.19-21.16,19.82-17.37,6.97,2.48,12.72,11.54,11.41,18.53-1.74,9.32-15.5,12.15-24.14,7.18-.98-.56-5.96-3.43-7.09-8.34Z"/>
      <path class="cls-17" d="M165.78,159.57c-2.03-8.85,9.19-21.16,19.82-17.37,6.97,2.48,12.72,11.54,11.41,18.53-1.74,9.32-15.5,12.15-24.14,7.18-.98-.56-5.96-3.43-7.09-8.34Z"/>
      <path class="cls-2" d="M228.6,137.4c-.26-1.2-.37-1.53-.48-1.78-4.77-11.49-39.54-10.45-42.67-1.62-.27.75-.26,1.43-.24,1.77-.66,8.06-3.42,13.36-5.57,16.49-9.94,14.45-32.48,19.78-56.45,13.22,3.78-4.43,4.53-8.95,2.89-10.55-1.66-1.64-6.35-.81-8.1,1.98-1.79,2.86-.47,7.8,4.01,10.05,28.78,10.35,52.17,10.06,66.18,8.58,6.28-.66,36.9-3.83,40.64-16.86.92-3.19,1.72-12.21-.21-21.27Z"/>
      <line class="cls-18" x1="192.1" y1="143.1" x2="192.5" y2="141.5"/>
      <line class="cls-18" x1="203.89" y1="143.09" x2="203.39" y2="141.51"/>
      <path class="cls-14" d="M291.58,158.51c2.08,13.19,3.43,33.81-4.58,55.87-7.67,21.13-19.1,30.51-39.49,58.89-8.62,12-20.86,30.27-33.62,54.42h21.45c7.6-19.99,15.75-35.17,21.7-45.23,18.88-31.9,33.19-41.9,39.83-66.72,4.73-17.7,3-33.35,1.25-42.71-2.18-4.84-4.36-9.68-6.54-14.52Z"/>
      <path class="cls-14" d="M176.2,300.09c18.47-1.05,39-1.29,61.24-.07,26.4,1.44,50.28,4.66,71.18,8.58-22.03,1.28-47.08,1.39-74.54-.78-21.06-1.67-40.43-4.44-57.89-7.73Z"/>
      <path class="cls-14" d="M206.15,257.67c16.25-3.87,39.29-7.48,66.81-5.74,33.88,2.14,60.59,11.51,77.53,19.02-24.11-4.81-51.2-8.88-80.88-11.22-22.65-1.78-43.89-2.33-63.46-2.06Z"/>
      <path class="cls-14" d="M248.37,222.38c4.02-2.85,19.85-13.36,41.37-10.83,28.9,3.4,43.32,27.45,44.93,30.23-6.56-5.83-23.21-19.02-48.28-22.43-16.51-2.25-30.06.65-38.02,3.03Z"/>
      <g>
        <path class="cls-7" d="M188.68,327.7c-10.79,13.63-20.15,15.13-24.12,15.28-27.59,1.06-56.58-52.44-42.21-75.23,8.6-13.63,33.47-17.48,39.57-10.21,5.23,6.23-5.33,18.2.51,26.04,5.39,7.25,22.45,7.88,30.13.51,14.51-13.92,4.08-64.63-22.98-74.04-25.17-8.75-59.19,20.15-66.84,49.57-11.61,44.63,34.18,103.09,83.97,101.91,32.95-.78,55.41-27.38,60.57-33.82h-58.6Z"/>
        <g class="cls-12">
          <path class="cls-3" d="M154,258.17c-.47-2.08-3.19-15,5.11-26.55,6.92-9.64,18.89-14.69,31.15-13.28,13.11,19.35,26.21,38.7,39.32,58.04l-62.3,30.38c-4.43-16.2-8.85-32.4-13.28-48.6Z"/>
        </g>
      </g>
      <path class="cls-14" d="M159.81,342.63c5.75,2.38,23.96,9.07,45.74,2.81,15.26-4.38,25.15-13.07,29.79-17.75h-21.45c-3.41,3.65-8.89,8.53-16.77,12.13-16.49,7.54-32.03,4.2-37.32,2.8Z"/>
      <path class="cls-14" d="M104.11,255.13c12.09-19.04,33.87-27.67,52.26-21.93,18.08,5.64,25.56,22.9,26.72,25.7.34-14.87-5.63-28.97-16.68-35.57-16.65-9.95-44.23-2.55-57.9,21.96-1.47,3.28-2.93,6.56-4.4,9.85Z"/>
      <path class="cls-7" d="M183.94,175.92c.54-.81,6.06-8.81,14.98-8.67,3.22.05,5.8,1.15,7.42,2.05-1.26-.2-4.52-.56-8.15,1.06-3.67,1.63-5.6,4.32-6.29,5.39-2.65.06-5.3.12-7.96.18Z"/>
      <path class="cls-17" d="M218.59,121.93c-.49-2.67,3.32-6.63,6.66-5.66,2.19.63,3.87,3.3,3.32,5.46-.73,2.88-5.18,3.99-7.86,2.62-.3-.15-1.85-.94-2.12-2.42Z"/>
      <path class="cls-17" d="M191.57,124.31c-1.98,1.85-7.37.76-8.35-2.58-.64-2.19.7-5.03,2.81-5.73,2.82-.94,6.15,2.23,6.44,5.22.03.34.2,2.07-.9,3.09Z"/>
      <path class="cls-14" d="M203.89,113.39l9.23.25c-1.43.7-3.35,1.85-5.24,3.69-2.78,2.7-4.17,5.6-4.85,7.36-.29-1.9-.47-4.44-.04-7.36.21-1.48.54-2.8.9-3.93Z"/>
      <path class="cls-14" d="M138,98.25c10.71,7.28,21.41,14.56,32.12,21.83,1.4-1.14,3.11-2.36,5.16-3.49,3.8-2.1,7.37-3.15,10.08-3.7-7.15-1.36-15.01-3.22-23.39-5.79-8.93-2.73-16.93-5.79-23.96-8.86Z"/>
      <path class="cls-14" d="M243.53,114.44c2.62.05,6.19.39,10.22,1.65,3.15.98,5.72,2.26,7.66,3.4,2.97-3.72,7.29-8.51,13.19-13.28,10.63-8.59,20.31-12.19,20.17-12.51-.15-.34-10.45,3.61-51.24,20.74Z"/>
      <path class="cls-4" d="M217.41,226.31c10.19-12.97,20.14-21.43,27.55-26.84,12.77-9.34,24.89-14.68,26.38-25.53.63-4.6-.86-8.65-2.2-11.32-7.55,5.91-23.2,16.5-45.8,20.51-18.12,3.22-33.15.86-41.98-1.23,3.38,1.89,7.65,3.9,12.77,5.49,7.61,2.37,14.38,2.98,19.38,3.02.21,4.45.53,9.07.98,13.83.74,7.8,1.74,15.17,2.92,22.08Z"/>
      <path class="cls-6" d="M240.54,201.17"/>
      <path class="cls-4" d="M247.28,327.7l5.26-9.59c8.67.34,33.67.2,58.68-16.34,26.97-17.84,36.62-43.3,39.29-51.24,2.67,6.21,3.53,11.34,3.86,14.48,2.86,27.24-18.56,50.46-26.48,59.03-1.52,1.65-2.8,2.94-3.53,3.67h-77.08Z"/>
      <path class="cls-4" d="M188.68,327.7l5.86-10.02c-2.54-.21-17.64-1.68-28.26-14.98-10.03-12.56-8.83-26.6-8.53-29.36-1.07,1.91-2.5,4.9-3.38,8.76-2.41,10.54,1.18,19.42,3.91,26.21,1.92,4.75,5.43,11.91,11.91,19.38h18.49Z"/>
      <path class="cls-4" d="M189.58,130.15c13.16-4.45,25.92-2.68,31.38,4.47,3.31,4.33,4.17,10.95,4.43,12.94.49,3.75,1.09,8.41-1.02,13.11-3.79,8.41-13.54,10.78-15.19,11.16,1.83.11,14.87.72,20.6-7.64,2.82-4.11,2.77-8.8,2.68-17.21-.08-7.67-.12-11.5-2.21-14.64-6.61-9.9-25.03-7.12-27.06-6.81-6.03.91-10.69,3.04-13.6,4.64Z"/>
      <path class="cls-19" d="M123.19,165.48c3.9-4.26,4.57-8.88,2.89-10.55-1.77-1.77-6.87-.91-8.59,2.12-1.68,2.96-.12,7.9,4.5,9.9.4-.49.8-.98,1.2-1.47Z"/>
    </g>
  </g>
</svg>