<?xml version="1.0" encoding="UTF-8"?>
<svg xmlns="http://www.w3.org/2000/svg" version="1.1" xmlns:xlink="http://www.w3.org/1999/xlink" viewBox="0 0 450 450">
  <defs>
    <style>
      .cls-1 {
        fill: #f37c20;
      }

      .cls-2, .cls-3, .cls-4 {
        fill: #fff;
      }

      .cls-5 {
        fill: #fcbb50;
      }

      .cls-3, .cls-6 {
        display: none;
      }

      .cls-7 {
        fill: none;
        stroke: #fff;
        stroke-miterlimit: 10;
        stroke-width: 6px;
      }

      .cls-7, .cls-4 {
        mix-blend-mode: overlay;
      }

      .cls-8, .cls-9 {
        fill: #cd7e2b;
      }

      .cls-10 {
        clip-path: url(#clippath-1);
      }

      .cls-11 {
        fill: #52398c;
      }

      .cls-12 {
        isolation: isolate;
      }

      .cls-6, .cls-13 {
        fill: #131246;
      }

      .cls-14 {
        fill: #ffe8b5;
      }

      .cls-15 {
        clip-path: url(#clippath-2);
      }

      .cls-9 {
        mix-blend-mode: soft-light;
      }

      .cls-16 {
        fill: #6a3894;
      }

      .cls-17 {
        clip-path: url(#clippath);
      }
    </style>
    <clipPath id="clippath">
      <circle class="cls-11" cx="225.09" cy="225.4" r="189.69"/>
    </clipPath>
    <clipPath id="clippath-1">
      <path class="cls-5" d="M220.79,63.62c43.1,9.55,81.31,81.43,64.9,119.32-6.99,16.14-20.45,18.13-24.53,37.22-5.04,23.54,8.2,54.64,34.57,68.54,21.46,11.32,43.82,5.6,50.65,3.56,10.08-111.59,20.33-143.63,29.17-143.84,12.99-.31,23.72,67.98,17.7,107.23-2.59,16.91-8.01,26.56-14.3,33.36-7.47,8.08-16.08,12.05-21.57,14.02-5.47,11-37.57,73.12-104.03,88.59-82,19.09-173.14-42.88-191.17-126.09C38.55,156.47,158.39,49.8,220.79,63.62Z"/>
    </clipPath>
    <clipPath id="clippath-2">
      <path class="cls-16" d="M293.05,375.85c-8.85,3.47-24.88,8.1-43.5,4.18-30.16-6.35-54.48-32.51-63.48-66.95,1.44,43.22,17.85,77.19,39.52,82.02,14.05,3.13,35.5-4.84,44.23-8.08,9.9-3.68,17.75-7.88,23.24-11.17Z"/>
    </clipPath>
  </defs>
  <!-- Generator: Adobe Illustrator 28.7.2, SVG Export Plug-In . SVG Version: 1.2.0 Build 154)  -->
  <g class="cls-12">
    <g id="Layer_1">
      <g>
        <circle class="cls-11" cx="225.09" cy="225.4" r="189.69"/>
        <g class="cls-17">
          <path class="cls-4" d="M266.99,300.68c7.43-1.43,24.05-5.75,38.1-20.09,10.06-10.26,14.11-20.88,15.06-23.49,5.98-16.45,3.48-30.91,2.04-37.02,1.93,5.26,7.61,22.76.18,42.24-1.15,3.02-4.69,12.8-14.19,21.2-15.46,13.67-35.52,16.5-41.19,17.15Z"/>
          <path class="cls-4" d="M265.62,296.09c10.6-8.3,23.03-20.77,30.53-38.73,13.48-32.26,3.21-66.49,4.6-66.64.87-.09,4.32,13.56,4.34,30.13.01,12.48.03,29.02-9.7,46.21-8.93,15.77-21.82,24.61-29.77,29.03Z"/>
          <path class="cls-4" d="M269.29,311.28c4.51-.75,17.07-3.17,32.93-10.45,20.42-9.36,31.54-20,34.02-22.44-1.44,2.66-4.93,8.15-12.65,13.85-7.24,5.35-14.43,8.11-22.11,11-6.82,2.57-18.41,6.37-32.18,8.04Z"/>
          <path class="cls-8" d="M18.59,298.96c.94-27.14,24.21-47.3,25.27-48.2,28.42-23.97,75.48-24.2,119.16.28,21.51,10.8,43.03,21.59,64.54,32.39-47.71-22.05-100.14,4.46-111.48,43.44-11.24,38.63,18.13,88.69,69.62,96.34-102.03-25.46-168.75-76.98-167.11-124.26Z"/>
          <path class="cls-9" d="M85.18,33.16c.8,8.65,1.51,22.08,0,38.3-5.79,62.28-37.02,88.06-26.04,119.49,8.18,23.44,34.22,33.95,37.53,35.23,56.09,21.75,104.16-51.31,153.96-31.4,33.03,13.2,29.68,52.46,55.91,58.21,20.31,4.45,53.26-12.3,108.77-104.94,53.53,59.18,107.06,118.37,160.6,177.55l-197.08,225.85L-40.27,355.32C1.55,247.94,43.36,140.55,85.18,33.16Z"/>
          <path class="cls-5" d="M240.69,90.14c5.4-4.66,14.61-11.39,27.29-14.47,37.24-9.06,61.45,23.74,105.51,22.17,11-.39,27.4-3.07,47.24-14.83-16.56-29.74-33.12-59.48-49.68-89.22-86.52-19.15-162.22.38-188.51,47.6-5.28,9.48-10.44,23.45-10.49,43.25,22.88,1.83,45.76,3.67,68.64,5.5Z"/>
          <path class="cls-14" d="M315.3,4.63c24.28,9.38,36.2,57.73,23.39,69.23-10.41,9.34-31.5-10.75-63.62-11.49-39.76-.92-72.49,28.37-93.63,52.69,24.25-33.74,93.82-125.89,133.86-110.42Z"/>
          <path class="cls-5" d="M284.53,121.16c19.75-16.39,61.11-12.27,70.85,9.74,6.96,15.71-2.69,39.44-14.13,41.87-11.05,2.35-16.36-16.77-38.51-21.07-16.04-3.12-25.87,4.47-30.1-.91-4.57-5.8,1.74-21.2,11.9-29.63Z"/>
          <path class="cls-14" d="M342.96,138.89c4.34,7.39.59,21.21-5.96,23.66-5.86,2.19-11.78-5.54-22.64-12.09-8.89-5.36-22.88-11.01-44.43-10.72,16.36-4.58,63.72-16.69,73.02-.85Z"/>
          <g>
            <path class="cls-5" d="M220.79,63.62c43.1,9.55,81.31,81.43,64.9,119.32-6.99,16.14-20.45,18.13-24.53,37.22-5.04,23.54,8.2,54.64,34.57,68.54,21.46,11.32,43.82,5.6,50.65,3.56,10.08-111.59,20.33-143.63,29.17-143.84,12.99-.31,23.72,67.98,17.7,107.23-2.59,16.91-8.01,26.56-14.3,33.36-7.47,8.08-16.08,12.05-21.57,14.02-5.47,11-37.57,73.12-104.03,88.59-82,19.09-173.14-42.88-191.17-126.09C38.55,156.47,158.39,49.8,220.79,63.62Z"/>
            <g class="cls-10">
              <path class="cls-1" d="M439.77,261.81c-11.28,28.25-45.65,53.56-72.09,45.9-16.06-4.65-25.16-20.17-31.34-30.7-13.5-23.01-13.09-46.1-12.33-55.77,2.66-33.73,24.02-77.56,50.45-79.62,35.47-2.77,85.65,69.23,65.31,120.19Z"/>
            </g>
          </g>
          <path class="cls-2" d="M146.55,305.94c-9.21-4.55-73.9-37.74-87.58-106.1-14.21-71.05,32.41-151.42,116.43-183.83-23.49,2.81-46.98,5.62-70.47,8.43-55.19,43.06-79.06,113.39-60.51,176.17,22.17,75.06,94.09,102.43,102.13,105.34Z"/>
          <path class="cls-2" d="M152.91,289.28c-45.91-46.66-65.27-110.16-48.08-165.75,3.25-10.5,16.81-52.06,59.84-78.67,48.51-29.99,98.48-18.75,108.26-16.34-1.7-9.51-3.4-19.01-5.11-28.52-22.8,1.64-65.62,7.86-109.28,35.67-22.88,14.57-65.7,41.85-78.64,88.85-15.07,54.74,14.87,119.94,73.01,164.76Z"/>
          <path class="cls-2" d="M148.25,319.46c-9.46.06-64.58-.41-97.34-40.55-37.31-45.72-31.69-125.83,23.89-183.23-8.85,6.47-17.7,12.94-26.55,19.4-46.79,62.42-41.7,140.63.23,179.35,37.13,34.3,91.02,26.44,99.78,25.03Z"/>
          <g>
            <path class="cls-2" d="M238.78,117.61c26.99,17.41,27.7,60.24,6.06,87.31-13.66,17.08-43.4,36.86-75.67,29.85-37.58-8.16-58.64-48.31-49.32-77.91,13.05-41.43,85.22-60.99,118.93-39.26Z"/>
            <path class="cls-13" d="M231.99,121.85c17.27,10.42,17.87,35.81,4.17,51.78-8.65,10.08-27.53,21.69-48.12,17.43-23.98-4.97-37.54-28.85-31.71-46.36,8.17-24.51,54.09-35.85,75.66-22.85Z"/>
            <path class="cls-2" d="M198.16,123.68c3.43,2.14,3.53,7.39.8,10.7-1.73,2.09-5.49,4.5-9.58,3.63-4.77-1.01-7.45-5.94-6.28-9.56,1.64-5.07,10.78-7.44,15.06-4.77Z"/>
          </g>
          <g>
            <path class="cls-16" d="M293.05,375.85c-8.85,3.47-24.88,8.1-43.5,4.18-30.16-6.35-54.48-32.51-63.48-66.95,1.44,43.22,17.85,77.19,39.52,82.02,14.05,3.13,35.5-4.84,44.23-8.08,9.9-3.68,17.75-7.88,23.24-11.17Z"/>
            <g class="cls-15">
              <path class="cls-2" d="M222.5,350.26c-5.78,5.01-11.55,10.01-17.33,15.02,3.03,4.08,9.73,11.92,21.11,17.19,9.58,4.44,18.24,5.1,23.15,5.11-.87-5.69-1.74-11.38-2.61-17.08l-24.32-20.24Z"/>
            </g>
          </g>
          <circle class="cls-7" cx="225.09" cy="225.04" r="181.82"/>
        </g>
      </g>
      <path class="cls-3" d="M263.8,204.03c5.62,4.56,5.57,16.08.87,23.46-2.96,4.66-9.33,10.12-16.11,8.38-7.89-2.02-12.15-12.72-10.05-20.73,2.95-11.21,18.27-16.81,25.29-11.12Z"/>
      <path class="cls-6" d="M253.69,208.21c2.64,2.38,2.57,8.46.31,12.37-1.42,2.47-4.46,5.38-7.67,4.49-3.73-1.03-5.7-6.66-4.67-10.89,1.44-5.92,8.73-8.94,12.02-5.97Z"/>
    </g>
  </g>
</svg>