<?xml version="1.0" encoding="UTF-8"?>
<svg xmlns="http://www.w3.org/2000/svg" version="1.1" xmlns:xlink="http://www.w3.org/1999/xlink" viewBox="0 0 450 450">
  <defs>
    <style>
      .cls-1 {
        fill: #181b2b;
      }

      .cls-2 {
        fill: none;
        stroke-width: 5px;
      }

      .cls-2, .cls-3, .cls-4 {
        display: none;
      }

      .cls-2, .cls-5 {
        stroke: #231f20;
        stroke-linecap: round;
        stroke-miterlimit: 10;
      }

      .cls-6 {
        fill: #fff;
      }

      .cls-7 {
        fill: #ef30d4;
        mix-blend-mode: multiply;
        opacity: .55;
      }

      .cls-8 {
        clip-path: url(#clippath-1);
      }

      .cls-9 {
        isolation: isolate;
      }

      .cls-10 {
        fill: #ff9700;
      }

      .cls-11 {
        fill: #3d4751;
      }

      .cls-12 {
        fill: #e56e15;
      }

      .cls-13 {
        clip-path: url(#clippath-3);
      }

      .cls-3, .cls-14 {
        fill: #e59c24;
      }

      .cls-15 {
        fill: #07070c;
      }

      .cls-16 {
        clip-path: url(#clippath-2);
      }

      .cls-17 {
        fill: #63717c;
      }

      .cls-18 {
        clip-path: url(#clippath);
      }

      .cls-19 {
        fill: #e0650a;
      }

      .cls-5 {
        fill: #231f20;
        stroke-width: 6px;
      }
    </style>
    <clipPath id="clippath">
      <circle class="cls-1" cx="240.69" cy="222.03" r="189.69"/>
    </clipPath>
    <clipPath id="clippath-1">
      <path class="cls-12" d="M104.45,354.01c6.36-16.99,8.46-31.09,9.25-40.49,4.17-49.77-14.79-131.76-17.45-143.05-.22-.92-.43-2.72.04-4.91,3.51-16.39,41.72-21.82,61.42-22.54,20.91-.76,41.1-1.5,60.53,12.33,4.12,2.94,28.65,21.09,30.6,47.32.73,9.82-2.12,15.71,2.45,21.86,6.54,8.8,21.85,10.13,32.05,6.71,16.13-5.41,27.14-25.2,26.52-49.31-6.11-2.96-9.37-9.7-7.91-16.09,1.86-8.15,10.73-12.87,14.04-10.98,2.4,1.37,3.5,7.14-2.3,26.55.5,2.56,9.17,50.66-24.24,79.58-15.35,13.28-32.68,16.54-41.28,17.5-3.89,19.72-9.42,41.87-17.39,65.67-8.19,24.47-17.39,46.02-26.42,64.49-13.5-2.42-33.31-7.57-54.81-19.4-21.1-11.61-35.87-25.27-45.11-35.24Z"/>
    </clipPath>
    <clipPath id="clippath-2">
      <circle class="cls-1" cx="230.97" cy="217.64" r="189.69"/>
    </clipPath>
    <clipPath id="clippath-3">
      <path class="cls-12" d="M146.89,394.46c12.44-27.66,12.65-48.79,10.66-62.79-5.27-37.16-34.03-95.89-50.45-126.78-.42-.79-1.05-2.39-1.15-4.5-.73-15.85,32.94-30.03,50.8-35.44,18.96-5.74,37.27-11.28,58.39-3.29,4.48,1.7,31.32,12.4,39.42,35.96,3.03,8.82,1.85,14.89,7.52,19.43,8.11,6.48,22.45,4.01,30.96-1.58,13.46-8.84,18.78-29.61,12.4-51.54-6.31-1.23-10.92-6.62-11.12-12.82-.26-7.91,6.72-14.37,10.21-13.44,2.53.68,4.93,5.69,4.3,24.87,1.08,2.23,20.61,44.18-3.02,78.7-10.85,15.86-25.93,23.02-33.57,25.97-1.36,19-1.72,40.62-.09,64.32,2.35,34.12,8.23,63.82,14.77,88.1-7.49,4.32-37.07,20.22-75.74,12.86-37.27-7.09-58.6-31.15-64.28-38.01Z"/>
    </clipPath>
  </defs>
  <!-- Generator: Adobe Illustrator 28.7.2, SVG Export Plug-In . SVG Version: 1.2.0 Build 154)  -->
  <g class="cls-9">
    <g id="Layer_1" class="cls-4">
      <g>
        <circle class="cls-1" cx="240.69" cy="222.03" r="189.69"/>
        <g class="cls-18">
          <ellipse class="cls-15" cx="234.77" cy="143.12" rx="175.79" ry="206.05"/>
          <path class="cls-10" d="M226.27,173.29c-3.12-17.17-4.61-41.21,5.39-65.49,18.41-44.69,60.42-52.99,57.51-70.96-3.87-23.9-85.29-52.62-122.1-15.94-28.31,28.2-15.12,79.99-1.17,106.82,11.8,22.69,28.77,36.47,39.58,43.78,6.93.6,13.86,1.2,20.79,1.8Z"/>
          <path class="cls-19" d="M396.53,208.75c-14.94-5.97-29.91.39-32.96,1.68-27.4,11.64-43.72,47.98-40.17,91.23,3.99-39.66,23.16-70.58,49.36-77.62,2.86-.77,16.55-4.44,29.38,2.32,22.3,11.75,29.87,48.68,19.4,72.26-11.21,25.27-40.29,26.41-85.53,46.05-26.49,11.5-63.9,31.67-104.58,68.99,3.89,6,7.77,12,11.66,18.01,34.61-44.08,69.87-67.41,97.51-80.7,40.67-19.56,65.62-17.76,79.91-41.62,19.03-31.76,6.55-88.38-24-100.6Z"/>
        </g>
      </g>
      <g>
        <path class="cls-12" d="M104.45,354.01c6.36-16.99,8.46-31.09,9.25-40.49,4.17-49.77-14.79-131.76-17.45-143.05-.22-.92-.43-2.72.04-4.91,3.51-16.39,41.72-21.82,61.42-22.54,20.91-.76,41.1-1.5,60.53,12.33,4.12,2.94,28.65,21.09,30.6,47.32.73,9.82-2.12,15.71,2.45,21.86,6.54,8.8,21.85,10.13,32.05,6.71,16.13-5.41,27.14-25.2,26.52-49.31-6.11-2.96-9.37-9.7-7.91-16.09,1.86-8.15,10.73-12.87,14.04-10.98,2.4,1.37,3.5,7.14-2.3,26.55.5,2.56,9.17,50.66-24.24,79.58-15.35,13.28-32.68,16.54-41.28,17.5-3.89,19.72-9.42,41.87-17.39,65.67-8.19,24.47-17.39,46.02-26.42,64.49-13.5-2.42-33.31-7.57-54.81-19.4-21.1-11.61-35.87-25.27-45.11-35.24Z"/>
        <g class="cls-8">
          <path class="cls-11" d="M102.24,296.22c15.34,9.88,39.27,22.81,70.86,30.83,31.93,8.1,59.39,8.06,77.68,6.62-13.46,38.39-26.91,76.79-40.37,115.18l-131.1-57.94,22.92-94.69Z"/>
          <line class="cls-5" x1="215.19" y1="203.39" x2="214.87" y2="201.68"/>
          <line class="cls-5" x1="194.38" y1="197.44" x2="195.22" y2="195.91"/>
          <path class="cls-2" d="M244.5,255.23c1.14,5.56,3.53,9.01,5.25,10.96,7.79,8.83,22.85,10.8,37.86,5"/>
          <path class="cls-10" d="M195.64,362.86c12.73-21.02,13.3-28.02,10.99-30.24-1.79-1.72-5.04-.32-13.93-1.46-4.75-.61-8.56-1.61-11-2.34.89,7.52,2.53,16.03,5.43,25.14,1.02,3.22,2.13,6.26,3.27,9.12-1.98,5.65-4.1,11.41-6.38,17.27-4.2,10.79-8.57,21.01-13.01,30.63,14.55,1.5,29.1,3,43.65,4.5-5.37-10.7-10.61-23.16-14.92-37.33-1.6-5.26-2.95-10.37-4.09-15.29Z"/>
        </g>
      </g>
      <path class="cls-15" d="M313.98,244.15c7.19-10.42,8.2-13.16,7.66-13.62-2.06-1.73-23.63,32.45-50.09,32.12-10.88-.13-19.69-6.06-25.36-10.94,2.21,3.61,6.9,10.04,15.2,14.36,17.03,8.85,34.43,1.07,36.8-.03,5.26-7.29,10.53-14.59,15.79-21.88Z"/>
      <path class="cls-17" d="M201.77,331.46c.56,5.3,1,10.87,1.28,16.69.38,8.04.41,15.65.19,22.76,17.28-4.36,34.56-8.71,51.84-13.07-3.71-10.14-7.41-20.27-11.12-30.41-7.61,1.17-15.68,2.16-24.19,2.9-6.22.54-12.23.9-18.01,1.12Z"/>
      <path class="cls-17" d="M188.95,330.5c-1.63,4.94-3.18,10.56-4.42,16.8-1.6,8.06-2.32,15.42-2.58,21.79-13.91-5.43-29.02-12.11-44.88-20.39-12.98-6.78-24.78-13.74-35.38-20.57,2.27-2.18,5.54-5.85,8.12-11.18,2.71-5.59,3.53-10.66,3.79-13.85,9.2,4.8,19.61,9.64,31.2,14.11,16.03,6.19,30.97,10.39,44.14,13.28Z"/>
      <path class="cls-12" d="M174.13,160.3c-19.29-12.67-41.1-32.02-50.3-60.6-17.02-52.87,22.84-94.77,7.15-110.3C111.21-30.17,11.16-.05,3.15,63.08c-5.71,44.97,38.12,84.34,75.36,99.05,43.97,17.37,84.54,2.62,95.62-1.83Z"/>
      <path class="cls-7" d="M113.47,406c9.44-10.41,20.89-26.75,24.01-48.44.39-2.7.63-5.34.74-7.89-3-1.59-6.01-3.18-9.01-4.77,2.48-3.92,5.95-10.63,7-19.55.5-4.24.33-7.99-.05-11.02-3.04-1.33-6.09-2.67-9.13-4,2.7-27.37,3.25-61.49-2.7-99.96-2.79-18.03-6.61-34.48-10.86-49.21-7.9-2.15-61.62-17.71-84.37-69.33C7.33,42.45,22.91-19.48,69.18-59.44-102.17,24.51-157.93,201.72-99.54,303.77c56.05,97.97,203.21,102.09,213.01,102.23Z"/>
      <path class="cls-3" d="M237.63,383.93c.89-1.01,13.38-15.41,9.39-23.84-.3-.64-.85-1.76-1.96-2.29-5.6-2.72-16.44,13.9-17.62,15.74,3.4,3.46,6.79,6.93,10.19,10.39Z"/>
      <path class="cls-6" d="M225.74,313.37c11.72,5.36,30.59,12.2,54.62,13.37,34.68,1.69,61.27-9.33,74.07-15.7-23.73,43.36-47.47,86.73-71.2,130.09-29.62,1.31-59.24,2.62-88.86,3.93,10.46-43.9,20.91-87.79,31.37-131.69Z"/>
      <path class="cls-3" d="M230.03,372.18c5.94,1.82,11.88,3.64,17.83,5.46.49-1.61,4.24-13.23,14.36-15.83,1.95-.5,5.22-1.34,6.31.17,2.31,3.21-6.88,14.88-16.99,26.21,1.58-1.36,7.57-6.17,15.74-4.99,2.26.33,5.46.78,5.89,2.35.54,1.99-3.24,6.08-23.71,15.48,1.33-.18,8.37-1.02,13.6,4.15,2.34,2.32,5.11,6.62,4.08,8.42-1.31,2.29-9.22,1.34-38.55-13.21-.19-.33-.33-.59-.4-.73-5.54-10.55-2.93-27.13.81-27.69.29-.04.63,0,1.03.21Z"/>
      <path class="cls-14" d="M177.17,392.63"/>
      <path class="cls-10" d="M130.97,142.09c-18.21-15.3-40.91-39.72-43.91-72.26-2.88-31.14,13.86-52.67,6.38-57.96-8.98-6.35-46.25,15.46-50.04,46.21-2.17,17.57,7.39,31.59,12.97,39.77,22.78,33.4,61.38,41.94,74.6,44.23Z"/>
    </g>
    <g id="Layer_2">
      <g>
        <circle class="cls-1" cx="230.97" cy="217.64" r="189.69"/>
        <g class="cls-16">
          <ellipse class="cls-15" cx="227.34" cy="146.47" rx="166.44" ry="195.09" transform="translate(-29.79 62.69) rotate(-14.75)"/>
          <path class="cls-10" d="M225.03,178.37c-7.27-6.33-17.48-17.26-19.09-32.02-4.17-38.3,53.95-62.12,47.74-80.43-7.31-21.58-101.72-28.62-118.98,10.21-12.76,28.7,22.48,69.28,25.75,72.96,16.4,18.52,35.43,27.16,46.33,31.12l18.24-1.84Z"/>
          <path class="cls-19" d="M391.27,167.57c-15.12-1.87-27.29,7.56-29.77,9.48-22.28,17.26-28.47,54.47-14.79,93.22-10.43-46.27,2.56-84.76,25.82-94.36,13.78-5.69,28.19-.02,30.93,1.12,24.79,10.32,37.26,42.93,32.38,66.8-5.43,26.57-30.58,33.94-67.22,62.78-21.49,16.91-50.88,44.4-79.12,88.37l15.02,13.68c21.07-48.7,47.73-78.56,69.83-97.4,32.52-27.71,55.81-32.08,63.14-57.37,9.77-33.67-15.3-82.5-46.22-86.32Z"/>
          <g>
            <path class="cls-12" d="M146.89,394.46c12.44-27.66,12.65-48.79,10.66-62.79-5.27-37.16-34.03-95.89-50.45-126.78-.42-.79-1.05-2.39-1.15-4.5-.73-15.85,32.94-30.03,50.8-35.44,18.96-5.74,37.27-11.28,58.39-3.29,4.48,1.7,31.32,12.4,39.42,35.96,3.03,8.82,1.85,14.89,7.52,19.43,8.11,6.48,22.45,4.01,30.96-1.58,13.46-8.84,18.78-29.61,12.4-51.54-6.31-1.23-10.92-6.62-11.12-12.82-.26-7.91,6.72-14.37,10.21-13.44,2.53.68,4.93,5.69,4.3,24.87,1.08,2.23,20.61,44.18-3.02,78.7-10.85,15.86-25.93,23.02-33.57,25.97-1.36,19-1.72,40.62-.09,64.32,2.35,34.12,8.23,63.82,14.77,88.1-7.49,4.32-37.07,20.22-75.74,12.86-37.27-7.09-58.6-31.15-64.28-38.01Z"/>
            <g class="cls-13">
              <path class="cls-11" d="M142.89,318.59c16.43,5.35,41.45,11.42,72.31,11.15,31.19-.28,56.32-6.94,72.72-12.66-3.07,38.4-6.13,76.79-9.2,115.19l-134-21.45-1.83-92.23Z"/>
              <line class="cls-5" x1="223.94" y1="206.38" x2="223.23" y2="204.88"/>
              <line class="cls-5" x1="203.45" y1="205.94" x2="203.85" y2="204.33"/>
              <path class="cls-2" d="M263.26,246.77c2.38,4.82,5.41,7.4,7.45,8.77,9.26,6.21,23.53,4.39,35.87-4.55"/>
              <path class="cls-10" d="M244.47,357.09c6.59-22.32,5.43-28.86,2.77-30.34-2.05-1.14-4.7.92-13.11,2.02-4.49.59-8.22.59-10.64.51,2.63,6.67,6.18,14.07,11.03,21.71,1.71,2.7,3.46,5.22,5.2,7.56-.59,5.74-1.15,11.52-1.68,17.35-1.54,16.98-2.75,33.63-3.66,49.94,14.47-6.81,28.94-13.62,43.4-20.43-8.63-9.91-17.53-21.62-25.88-35.31-2.69-4.41-5.16-8.76-7.43-13.01Z"/>
            </g>
          </g>
          <path class="cls-15" d="M324.21,219.88c4.07-11.27,4.34-14.03,3.73-14.31-2.3-1.09-13.81,35.4-38.13,41.48-9.99,2.5-19.49-.81-25.85-3.91,2.9,2.77,8.73,7.53,17.38,9.48,17.73,4,31.78-7.31,33.69-8.9,3.06-7.95,6.12-15.9,9.18-23.84Z"/>
          <path class="cls-17" d="M242.51,326.86c1.79,4.71,3.53,9.71,5.19,14.98,2.29,7.27,4.15,14.23,5.66,20.79,14.77-8.15,29.55-16.31,44.32-24.46-5.84-8.39-11.67-16.78-17.51-25.16-6.68,2.9-13.84,5.76-21.45,8.48-5.57,1.99-10.98,3.78-16.22,5.37Z"/>
          <path class="cls-17" d="M230.54,329.08c-.3,4.92-.37,10.44,0,16.45.48,7.76,1.59,14.68,2.89,20.57-14.05-1.61-29.49-4.09-46-7.85-13.52-3.08-26-6.61-37.35-10.3,1.55-2.54,3.66-6.69,4.74-12.19,1.13-5.77.66-10.61.13-13.6,9.58,2.18,20.28,4.1,31.97,5.4,16.17,1.8,30.86,2.05,43.62,1.52Z"/>
          <path class="cls-12" d="M175.95,176.81c-20.71-6.95-45.35-19.41-60.66-43.36-28.32-44.31-1.93-92.27-20.04-102.71C72.44,17.59-11.91,69.27-4.03,129c5.61,42.55,55.23,68.04,92.88,72.53,44.45,5.31,78.03-17.97,87.11-24.72Z"/>
          <path class="cls-7" d="M179.63,416.4c6.14-11.81,12.68-29.53,10.31-50.14-.3-2.57-.71-5.04-1.22-7.41-3.13-.73-6.27-1.46-9.4-2.2,1.32-4.19,2.88-11.17,1.69-19.59-.57-4-1.62-7.39-2.7-10.08-3.11-.49-6.22-.98-9.32-1.46-4.13-25.71-11.84-57.08-26.56-90.88-6.9-15.84-14.36-29.98-21.8-42.44-7.75-.07-60.69-1.37-93.96-43.14C-5.17,109.11-5.84,48.65,26.9.91-109.76,119.07-118.1,294.77-40.04,374.14c74.93,76.19,210.67,44.5,219.68,42.27Z"/>
          <path class="cls-3" d="M227.91,379.53c.89-1.01,13.38-15.41,9.39-23.84-.3-.64-.85-1.76-1.96-2.29-5.6-2.72-16.44,13.9-17.62,15.74,3.4,3.46,6.79,6.93,10.19,10.39Z"/>
          <path class="cls-6" d="M258.03,309.74c12.03,2.09,30.95,3.79,53.23-.92,32.17-6.81,53.85-23.31,64.03-32.23-11.28,45.42-22.56,90.85-33.84,136.27-26.8,8.34-53.61,16.68-80.41,25.02-1-42.71-2.01-85.43-3.01-128.14Z"/>
          <path class="cls-3" d="M220.31,367.79c5.94,1.82,11.88,3.64,17.83,5.46.49-1.61,4.24-13.23,14.36-15.83,1.95-.5,5.22-1.34,6.31.17,2.31,3.21-6.88,14.88-16.99,26.21,1.58-1.36,7.57-6.17,15.74-4.99,2.26.33,5.46.78,5.89,2.35.54,1.99-3.24,6.08-23.71,15.48,1.33-.18,8.37-1.02,13.6,4.15,2.34,2.32,5.11,6.62,4.08,8.42-1.31,2.29-9.22,1.34-38.55-13.21-.19-.33-.33-.59-.4-.73-5.54-10.55-2.93-27.13.81-27.69.29-.04.63,0,1.03.21Z"/>
          <path class="cls-14" d="M234.73,388.81"/>
          <path class="cls-10" d="M132.05,170.54c-20.36-9.62-47.03-26.51-57.62-55.57-10.14-27.82,0-51.57-8.12-54.61-9.75-3.65-38.62,25.3-34.68,54.37,2.25,16.61,14.38,27.14,21.46,33.28,28.91,25.09,66.31,23.61,78.97,22.52Z"/>
        </g>
      </g>
    </g>
  </g>
</svg>